<?xml version="1.0" encoding="UTF-8" standalone="no"?>
<!-- Created with Inkscape (http://www.inkscape.org/) -->

<svg
   xmlns:dc="http://purl.org/dc/elements/1.1/"
   xmlns:cc="http://creativecommons.org/ns#"
   xmlns:rdf="http://www.w3.org/1999/02/22-rdf-syntax-ns#"
   xmlns:svg="http://www.w3.org/2000/svg"
   xmlns="http://www.w3.org/2000/svg"
   xmlns:sodipodi="http://sodipodi.sourceforge.net/DTD/sodipodi-0.dtd"
   xmlns:inkscape="http://www.inkscape.org/namespaces/inkscape"
   width="529"
   height="228.97751"
   id="svg2"
   version="1.1"
   inkscape:version="0.48.3.1 r9886"
   sodipodi:docname="Tilde.svg">
  <sodipodi:namedview
     id="base"
     pagecolor="#ffffff"
     bordercolor="#666666"
     borderopacity="1.0"
     inkscape:pageopacity="0.0"
     inkscape:pageshadow="2"
     inkscape:zoom="0.49497475"
     inkscape:cx="140.20464"
     inkscape:cy="-296.28484"
     inkscape:document-units="px"
     inkscape:current-layer="layer1"
     showgrid="false"
     inkscape:window-width="1680"
     inkscape:window-height="978"
     inkscape:window-x="-2"
     inkscape:window-y="-3"
     inkscape:window-maximized="1"
     fit-margin-top="0"
     fit-margin-left="0"
     fit-margin-right="0"
     fit-margin-bottom="0" />
  <defs
     id="defs4" />
  <metadata
     id="metadata7">
    <rdf:RDF>
      <cc:Work
         rdf:about="">
        <dc:format>image/svg+xml</dc:format>
        <dc:type
           rdf:resource="http://purl.org/dc/dcmitype/StillImage" />
        <dc:title></dc:title>
      </cc:Work>
    </rdf:RDF>
  </metadata>
  <g
     id="layer1"
     inkscape:groupmode="layer"
     inkscape:label="Ebene 1"
     transform="translate(-113.2666,-91.427612)">
    <path
       style="fill:#000000"
       d="m 469.76009,315.35784 -0.69418,-5.0473 -1.77337,3.2973 c -1.89088,3.5158 -2.86435,3.76761 -10.88852,2.81653 -4.15411,-0.49237 -4.47808,-0.76755 -6.26196,-5.31908 -2.48464,-6.33947 -1.70825,-15.7457 1.25258,-15.17549 1.40698,0.27096 1.87196,-0.23217 1.87196,-2.02554 0,-1.59069 1.00001,-2.97677 3,-4.15819 3.31733,-1.9596 3.86979,-4.80871 1.5318,-7.8998 -0.8075,-1.06762 -1.4825,-2.72863 -1.5,-3.69113 -0.0446,-2.45575 3.67549,-2.2476 4.4682,0.25 0.96293,3.03391 2.18445,2.39353 2.28659,-1.19874 0.0606,-2.13128 -0.57222,-3.66324 -1.8963,-4.59066 -1.9706,-1.38026 -1.9688,-1.40792 0.21424,-3.30126 2.38971,-2.07258 5.41105,-2.50217 6.39547,-0.90934 0.93094,1.50629 3.5,1.20045 3.5,-0.41667 0,-0.77916 0.5625,-1.62291 1.25,-1.875 1,-0.36666 1,-0.72333 0,-1.78333 -0.98115,-1.04002 -1.25,-1.05194 -1.25,-0.0555 0,0.74459 -0.93038,1.13742 -2.25,0.95 -1.49759,-0.21269 -2.98771,-1.78179 -4.45604,-4.69223 -1.21332,-2.40497 -2.90082,-5.14041 -3.75,-6.07874 -1.96307,-2.16917 -1.98451,-4.9423 -0.044,-5.68695 2.17341,-0.83402 1.98914,-5.53374 -0.20213,-5.15547 -1.14565,0.19778 -2.00144,-0.68696 -2.61763,-2.70616 -0.50352,-1.65 -1.31256,-3.78139 -1.79787,-4.73643 -0.48526,-0.95499 -0.88233,-2.41749 -0.88233,-3.24995 0,-0.94781 -0.93448,-1.51357 -2.5,-1.51357 -1.5,0 -2.5,0.57143 -2.5,1.42857 0,0.78572 -0.72688,2.15545 -1.61529,3.04386 -1.48706,1.48706 -1.48706,1.757 0,3.40017 2.45632,2.71421 2.07131,7.59859 -0.7444,9.44351 -1.29783,0.85037 -3.09783,2.28427 -4,3.18644 -1.52041,1.52041 -1.64031,1.44883 -1.64031,-0.97926 l 0,-2.61957 -3.75,3.64788 c -2.0625,2.00633 -4.9875,4.28955 -6.5,5.07382 -3.50478,1.81731 -3.77077,5.37458 -0.40187,5.37458 2.27723,0 3.36936,1.67145 6.20735,9.5 0.61798,1.70469 0.83723,1.50103 1.48491,-1.37926 0.86257,-3.83592 3.25457,-6.01198 3.808,-3.46424 0.19162,0.88212 -0.12546,1.89671 -0.70463,2.25465 -1.34614,0.83196 -0.74997,11.65348 0.74098,13.44997 0.83989,1.012 0.62365,1.89969 -0.88706,3.64156 -1.09872,1.26683 -2.00329,2.57199 -2.01015,2.90033 -0.007,0.32834 -1.83227,2.55657 -4.05647,4.95161 -3.42918,3.69256 -3.94596,4.80105 -3.39909,7.29096 1.00099,4.55747 -0.7998,5.85442 -8.12873,5.85442 -6.04623,0 -6.42653,0.14436 -7.90324,3 -1.81176,3.50355 -1.48796,3.40859 -5.13569,1.50616 -1.57537,-0.82161 -3.61881,-1.49661 -4.54099,-1.5 -0.92217,-0.003 -1.82217,-0.76153 -2,-1.68475 -0.29309,-1.52167 -0.4997,-1.50221 -2.21003,0.20813 -1.84894,1.84897 -1.95567,1.80751 -5.33261,-2.07141 -1.89525,-2.17697 -4.60782,-6.43313 -6.02794,-9.45813 -2.94308,-6.26908 -3.68895,-6.96345 -7.50274,-6.98469 -3.02542,-0.0168 -3.10174,-0.38082 -2.76446,-13.18456 0.0916,-3.47825 -0.46032,-6.84819 -1.42817,-8.7198 -0.86762,-1.67781 -1.48956,-3.40165 -1.38207,-3.83075 0.47425,-1.89335 -1.46139,-15.2802 -2.2094,-15.2802 -0.45712,0 -1.11677,-0.9 -1.4659,-2 -0.34913,-1.1 -1.20742,-2 -1.90733,-2 -0.6999,0 -1.87454,-1.9125 -2.6103,-4.25 -0.73576,-2.3375 -1.93278,-4.96043 -2.66006,-5.82874 -1.9648,-2.34583 -1.61221,-3.8104 1.08002,-4.4861 2.1461,-0.53864 2.36701,-1.06608 2.0712,-4.94513 -0.18418,-2.41523 -1.65166,-6.71559 -3.30681,-9.69038 -2.04446,-3.67452 -2.81332,-6.19754 -2.45685,-8.06226 0.28536,-1.49275 0.88497,-2.48779 1.33248,-2.21121 0.44751,0.27657 1.10138,-0.40367 1.45304,-1.51166 0.35166,-1.10799 1.03055,-2.01452 1.50864,-2.01452 0.47809,0 1.03108,-1.4625 1.22888,-3.25 l 0.35962,-3.25 1.17899,2.75 c 1.68088,3.9207 3.6229,3.57323 2.79452,-0.5 -1.74384,-8.57471 -1.77299,-9.86398 -0.26104,-11.54461 2.57438,-2.86159 8.65085,-14.20539 7.60932,-14.20539 -0.5374,0 -1.24018,0.6856 -1.56174,1.52356 -0.8352,2.1765 -9.06606,7.37807 -22.35258,14.1259 -6.325,3.21229 -11.78271,6.23068 -12.12824,6.70754 -0.87376,1.20584 -8.36612,2.54739 -14.51761,2.59945 -2.83022,0.0239 -10.25522,1.44743 -16.5,3.16329 -11.77155,3.23442 -14.06446,3.50463 -19.71494,2.32335 -3.38695,-0.70808 -5.08816,0.38986 -5.1239,3.30691 -0.0192,1.56469 4.07501,1.6216 7.40802,0.10298 3.22832,-1.47092 5.28587,0.08 6.13897,4.62743 0.40035,2.13402 1.45742,3.66317 3.02647,4.37808 1.32617,0.60425 2.41123,1.67375 2.41123,2.37667 0,2.98268 -2.11347,8.25672 -4.19782,10.47541 -1.91689,2.04043 -2.83522,2.29319 -6.27388,1.72681 -2.21557,-0.36493 -4.49568,-1.03879 -5.06692,-1.49746 -0.57125,-0.45868 -3.04625,-0.93121 -5.5,-1.05007 -6.41358,-0.31067 -9.60614,-2.28213 -12.40652,-7.66124 -1.35396,-2.60074 -2.48269,-4.18111 -2.5083,-3.51194 -0.0256,0.66916 -1.58385,2.75395 -3.46276,4.63287 -2.61613,2.61613 -3.50615,4.43898 -3.80027,7.78333 l -0.38406,4.36713 -4.8279,-0.21897 c -6.87586,-0.31185 -9.57157,-2.35234 -9.57157,-7.24507 0,-2.15486 -0.45,-4.19604 -1,-4.53596 -0.55,-0.33992 -1,-1.44872 -1,-2.464 0,-1.55118 -0.63878,-1.78445 -4,-1.46069 -2.2,0.2119 -4,0.0251 -4,-0.41502 0,-0.44016 -1.55138,-2.61273 -3.44752,-4.82794 l -3.44751,-4.02765 3.99951,-2.90235 c 2.19973,-1.59629 6.11361,-4.49102 8.69751,-6.43274 4.40834,-3.3127 7.68029,-5.15863 11.19801,-6.31754 1.17692,-0.38774 1.1281,-0.51118 -0.22666,-0.57312 -3.85968,-0.17648 -6.93295,-12.31934 -3.88848,-15.36381 0.61333,-0.61333 1.11514,-1.88764 1.11514,-2.83181 0,-0.94416 0.5625,-1.9449 1.25,-2.22387 0.82087,-0.33307 0.90206,-0.79081 0.23651,-1.33333 -0.55742,-0.45437 -2.07414,-2.9315 -3.37049,-5.50472 -1.58828,-3.1527 -3.37767,-5.10136 -5.48651,-5.97487 -1.72123,-0.71296 -3.35451,-1.22716 -3.62951,-1.14267 -0.275,0.0845 -1.23458,-0.51118 -2.13241,-1.3237 -1.05943,-0.95877 -2.55118,-1.24671 -4.25,-0.82033 -2.24432,0.56329 -2.61759,1.19451 -2.61759,4.42644 0,4.79858 2.60568,11.09784 4.83136,11.67987 1.42701,0.37317 1.62608,1.30247 1.19102,5.55996 -0.46767,4.57648 -0.88897,5.3164 -4.02238,7.06427 -2.96894,1.65613 -4.65611,1.85619 -11.11942,1.31848 l -7.61942,-0.63388 -0.71257,5.76251 c -1.13672,9.19244 -1.67167,9.93989 -4.43701,6.19956 -1.28194,-1.73392 -2.5672,-4.91506 -2.85613,-7.06919 -0.69951,-5.21527 -2.2122,-5.94894 -2.4265,-1.17688 -0.0941,2.09496 -0.22039,4.56454 -0.28069,5.48794 -0.0603,0.92341 -0.94274,2.5995 -1.96098,3.72464 -1.57434,1.73963 -1.74529,2.98319 -1.14249,8.31118 0.38987,3.446 1.19211,6.84776 1.78277,7.55945 0.77166,0.9298 0.72043,1.95448 -0.18203,3.64074 -1.57275,2.93871 -0.59834,6.20549 2.69624,9.03937 3.69085,3.17474 2.48157,6.28692 -2.22917,5.73696 -3.06432,-0.35774 -3.60864,-0.0689 -4.55363,2.41666 -1.3167,3.46318 -1.53873,7.33749 -0.54814,9.56496 0.53019,1.19219 0.301,1.60786 -0.79763,1.44661 -2.01988,-0.29645 -15.6132,-14.1221 -15.6132,-15.88005 0,-0.74645 -0.62357,-2.20996 -1.38571,-3.25225 -1.33502,-1.82575 -1.50878,-1.78702 -4.75006,1.05887 -1.8504,1.62467 -3.4108,3.17894 -3.46756,3.45394 -0.60817,2.94644 -2.0569,5.79931 -4.02019,7.91664 -1.30706,1.40961 -2.37648,3.13002 -2.37648,3.82314 0,0.69312 -0.675,1.26022 -1.5,1.26022 -1.14753,0 -1.5,1.26467 -1.5,5.38205 l 0,5.38204 9.07643,-0.29181 c 4.99204,-0.1605 8.83211,-0.0475 8.5335,0.25112 -1.20246,1.20246 -17.67745,3.23784 -26.35993,3.25661 -7.79936,0.0169 -9.55059,-0.28059 -11.16667,-1.89668 -1.05417,-1.05416 -1.61667,-2.22796 -1.25,-2.60844 0.36667,-0.38048 -0.23333,-0.52589 -1.33333,-0.32312 -1.11233,0.20503 -2.13386,1.30195 -2.3016,2.47144 -0.29547,2.06009 -3.86595,4.37679 -6.74546,4.37679 -0.82791,0 -1.45294,0.94129 -1.45294,2.18812 0,1.20347 -1.0125,3.67539 -2.25,5.49317 -2.43066,3.57042 -5.66608,4.32968 -7.75,1.81871 -0.68469,-0.825 -1.65479,-1.5 -2.15578,-1.5 -0.96048,0 -7.84422,-6.55242 -7.84422,-7.46667 0,-1.09931 3.68988,-0.47876 5.55887,0.93487 2.81883,2.13205 5.84021,1.99919 4.96203,-0.2182 -0.3812,-0.9625 -0.86043,-2.57345 -1.06496,-3.57989 -0.75429,-3.71164 -1.75228,-6.18729 -2.75312,-6.82949 -0.90542,-0.58098 4.40386,-10.37478 6.41887,-11.84062 0.37803,-0.275 0.78759,-0.95 0.91013,-1.5 0.9423,-4.22915 2.46184,-7.16555 3.36364,-6.5 0.37262,0.275 0.99857,0.05 1.39101,-0.5 1.3023,-1.82516 4.64187,-3.19077 12.21761,-4.99601 15.80242,-3.7656 22.23673,-5.92823 27.57802,-9.26923 3.04047,-1.90182 5.30423,-3.68176 5.03059,-3.9554 -0.27365,-0.27365 -1.76095,0.40007 -3.30512,1.49716 -4.46783,3.17426 -9.72482,5.03465 -22.01697,7.79155 -16.31734,3.65968 -22.21197,2.42671 -26.25125,-5.49093 -3.06039,-5.99887 -3.35535,-10.52283 -1.61475,-24.76627 1.75416,-14.35434 3.00584,-18.82904 7.11801,-25.44662 5.38629,-8.66795 7.17989,-9.14163 13.43724,-3.54866 l 3.15006,2.81559 6.93662,-1.28289 c 5.15829,-0.954 7.08664,-1.75554 7.52178,-3.12655 0.32184,-1.01401 1.67113,-2.33846 2.99842,-2.94321 2.07294,-0.9445 2.41327,-1.79036 2.41327,-5.99806 0,-2.69418 -0.39502,-4.65437 -0.87781,-4.35599 -1.09425,0.67629 -9.65527,-5.76531 -10.46434,-7.87372 -0.3273,-0.85292 -1.39671,-1.59525 -2.37647,-1.64963 -3.6921,-0.20491 7.51768,-2.97061 14.46862,-3.56972 5.12055,-0.44134 7.25,-1.02236 7.25,-1.97815 0,-0.74429 0.45,-1.35326 1,-1.35326 0.55,0 0.98569,-1.0125 0.96819,-2.25 -0.036,-2.55066 -2.32981,-6.05505 -3.31707,-5.06779 -0.35812,0.35812 -0.65112,0.12612 -0.65112,-0.51554 0,-0.64167 -0.66115,-1.16667 -1.46921,-1.16667 -0.80806,0 -3.22343,-0.91435 -5.36749,-2.0319 -2.14405,-1.11754 -4.9188,-2.22843 -6.1661,-2.46864 -1.2473,-0.24021 -2.48057,-0.64949 -2.74059,-0.90952 -0.61292,-0.61291 6.49084,-3.58535 8.61551,-3.605 0.89533,-0.008 3.31468,-0.60252 5.37632,-1.32054 4.83876,-1.68522 17.57099,-1.47039 20.4304,0.34472 2.87126,1.82263 4.32116,5.18687 4.32116,10.0265 0,6.137 2.21432,7.96438 9.65081,7.96438 4.35469,0 6.68348,0.47715 7.80564,1.59931 1.22309,1.22308 1.92281,1.33082 2.97451,0.45799 2.32165,-1.9268 21.53262,-6.72281 28.92251,-7.22049 2.08284,-0.14028 4.00693,-0.61094 4.27577,-1.04593 0.26884,-0.43498 1.16938,-0.79088 2.00121,-0.79088 0.83182,0 2.10308,-0.59067 2.82502,-1.31261 0.87401,-0.87401 3.94094,-1.29041 9.17857,-1.24617 5.29999,0.0448 8.32663,-0.37217 9.27814,-1.27814 1.21624,-1.15802 1.21624,-1.46862 0,-2.23852 -2.22014,-1.40539 -9.30391,-1.07472 -12.64111,0.5901 -3.64977,1.82075 -29.19273,2.42635 -44.56537,1.05661 -11.54978,-1.02912 -12.05009,-1.96372 -4.0286,-7.52563 2.84656,-1.97374 6.18336,-4.86982 7.41511,-6.43574 1.23175,-1.56591 4.0774,-4.582486 6.32367,-6.703506 3.262,-3.0801 4.85823,-3.86142 7.92975,-3.88139 4.85808,-0.0316 9.19123,2.96839 11.27831,7.808326 l 1.58115,3.66667 1.41628,-3.95559 c 2.63752,-7.366396 8.02048,-10.890896 9.97582,-6.531676 0.88161,1.96547 0.96756,1.95262 3.66009,-0.54722 2.64166,-2.45261 3.22285,-2.55303 13.86055,-2.39505 9.50865,0.14122 11.33474,0.43524 12.71496,2.04722 1.19426,1.3948 2.95746,1.88232 6.80766,1.88232 8.85537,0 10.89077,2.07356 5.28555,5.384636 -3.37085,1.99121 -17.38701,6.57644 -20.176,6.60035 -2.11147,0.0181 -2.16594,0.88099 -0.2182,3.45614 0.80751,1.06762 1.4682,3.35512 1.4682,5.08333 0,1.72821 0.25107,3.39328 0.55793,3.70014 0.86496,0.86495 6.57996,-1.38821 10.27479,-4.05086 3.04332,-2.19316 3.99851,-2.35141 11,-1.82249 10.08087,0.76157 16.99283,2.0743 18.41616,3.49763 1.73282,1.73282 5.32709,1.38309 6.34831,-0.61769 0.49654,-0.97284 3.12427,-4.80105 5.83938,-8.50713 4.89624,-6.68327 6.51038,-7.22027 6.54812,-2.17845 0.0122,1.62515 0.73903,2.09436 3.53633,2.28274 1.93655,0.13042 4.66585,0.6724 6.06509,1.20439 1.39925,0.53199 4.93813,0.96726 7.86418,0.96726 5.83274,0 11.83333,1.99333 10.74148,3.56819 -1.06357,1.53408 -10.34894,7.89109 -13.48882,9.23481 -1.53838,0.65835 -3.58471,1.197 -4.5474,1.197 -1.53398,0 -1.70061,0.83436 -1.34802,6.75 0.33129,5.55827 0.85821,7.23552 2.98449,9.5 3.13439,3.33812 4.86413,3.48961 5.70925,0.5 1.14322,-4.04408 3.92723,-8.75 5.17648,-8.75 0.75612,0 1.48892,2.35101 1.91975,6.159 0.54143,4.78562 0.94273,5.83603 1.79965,4.71065 1.60372,-2.10613 5.59921,-2.14702 5.61816,-0.0575 0.0113,1.2437 0.22798,1.35276 0.8235,0.41443 0.81764,-1.28834 1.28739,-1.43049 8.91119,-2.69658 3.68277,-0.6116 4.25,-1.04055 4.25,-3.21399 0,-1.37951 0.70693,-4.93995 1.57096,-7.9121 1.49669,-5.14844 1.72909,-5.40391 4.91597,-5.40391 2.68607,0 3.91303,0.73873 6.22847,3.75 1.5859,2.0625 3.69062,5.60387 4.67715,7.86971 1.73337,3.98116 1.98085,4.13902 7.35895,4.69409 3.06089,0.31591 6.25614,1.26527 7.10056,2.10968 1.38039,1.3804 1.30781,1.77745 -0.71941,3.93532 l -2.25471,2.40003 2.4527,1.87058 c 1.34898,1.02883 3.20575,2.32059 4.12616,2.87059 0.95468,0.57049 1.91679,2.82543 2.24,5.25 0.31159,2.3375 0.92659,4.25 1.36665,4.25 0.89907,0 0.58851,3.58204 -0.54292,6.26228 -0.59728,1.41487 -0.0312,8.00486 1.02969,11.98772 0.10988,0.4125 0.25603,1.2 0.32478,1.75 0.0688,0.55 2.3375,1 5.04167,1 3.03812,0 5.07548,0.47645 5.33233,1.24699 0.44407,1.33223 1.76389,-9.44509 2.17899,-17.79317 0.138,-2.7754 1.02365,-7.06957 1.96811,-9.54259 1.64991,-4.32023 1.85701,-4.48008 5.28573,-4.0798 4.13565,0.48282 23.27217,10.0438 24.43353,12.20749 3.9,7.26587 6.06616,14.17996 5.45807,17.42137 -0.36523,1.94684 -1.09367,3.53971 -1.61874,3.53971 -0.52508,0 -0.95469,0.72748 -0.95469,1.61663 0,1.15739 -0.60531,1.45834 -2.13083,1.05941 -1.20691,-0.31562 -2.75548,0.0674 -3.57143,0.88337 -0.79233,0.79232 -2.3287,1.44059 -3.41415,1.44059 -1.9232,0 -1.95619,0.52946 -1.29301,20.75 0.37431,11.4125 0.75675,20.84971 0.84989,20.97157 0.0931,0.12186 3.21048,-0.8411 6.92744,-2.1399 9.71169,-3.39353 10.21873,-3.08204 10.98401,6.7478 0.34985,4.49379 0.63879,12.63303 0.64209,18.0872 0.003,5.45416 0.24115,9.6815 0.52857,9.39408 1.20491,-1.20491 3.69611,-15.93127 4.01572,-23.73831 0.28447,-6.9486 0.0225,-8.88053 -1.4929,-11.00868 -3.31706,-4.65838 -3.00352,-7.19904 1.16072,-9.40567 2.03837,-1.08013 3.83837,-2.64474 4,-3.47691 0.28769,-1.48118 1.62798,0.25937 8.13839,10.56882 1.47613,2.3375 3.04666,4.25 3.49007,4.25 0.44342,0 0.80196,-2.1375 0.79676,-4.75 -0.0191,-9.58872 3.81132,-27.25 5.91,-27.25 1.91303,0 7.28426,6.3865 9.67184,11.5 2.63383,5.64089 4.93294,6.6508 8.18521,3.59545 2.10131,-1.97407 4.22354,-2.58656 7.80955,-2.25389 1.4172,0.13147 1.76595,1.47767 2.04875,7.90844 0.27481,6.24891 0.3798,5.51215 0.54207,-3.80383 l 0.20124,-11.55384 3.34654,-3.24359 3.34654,-3.24359 1.68823,2.29742 1.68823,2.29743 -0.34627,-3.14574 c -0.2776,-2.5218 0.16178,-3.43764 2.21523,-4.61744 3.08993,-1.77532 5.0615,-1.25082 5.0615,1.34651 0,2.47391 1.07887,2.42349 3.87454,-0.18108 1.23842,-1.15376 2.78577,-2.18386 3.43856,-2.28911 1.55158,-0.25017 6.55648,-3.5232 9.58256,-6.26667 1.31761,-1.19455 3.00511,-1.93804 3.75,-1.6522 0.74489,0.28584 1.35434,0.0331 1.35434,-0.5616 0,-0.59472 1.4625,-1.82506 3.25,-2.73409 5.78745,-2.94318 8.45986,-7.39858 4.43779,-7.39858 -1.76267,0 -10.39716,-6.36081 -12.826,-9.44858 -1.59409,-2.02655 -1.96475,-3.52953 -1.53045,-6.20578 0.65081,-4.0105 5.10023,-10.38423 7.72898,-11.07166 0.96512,-0.25239 1.97925,-1.31728 2.25361,-2.36643 0.38757,-1.48208 1.40551,-1.90755 4.56386,-1.90755 3.73831,0 4.13603,-0.26121 4.94842,-3.25 l 0.88339,-3.25 5.24265,5.5 c 3.04537,3.19486 5.43928,4.99714 5.71181,4.30018 1.36939,-3.50209 4.6519,-6.17777 8.34416,-6.80157 2.20015,-0.37171 3.78872,-1.01814 3.53016,-1.43651 -0.25857,-0.41837 0.71316,-1.39099 2.15939,-2.16139 2.05831,-1.09644 2.72067,-1.12918 3.0492,-0.15071 0.5447,1.6223 2.87541,1.6223 3.06839,0 0.4703,-3.9537 2.08013,-12.84536 2.65168,-14.64615 0.49731,-1.56688 1.4928,-2.10385 3.90035,-2.10385 1.77793,0 3.77663,-0.54402 4.44154,-1.20893 0.66492,-0.66492 2.89242,-1.22943 4.95,-1.25448 3.38278,-0.0412 3.75076,-0.31019 3.84223,-2.80889 0.15264,-4.16961 1.39884,-4.59381 1.39884,-0.47615 0,4.56511 -0.84345,6.74845 -2.60699,6.74845 -0.76615,0 -1.39301,0.64468 -1.39301,1.43261 0,1.72724 -3.07954,2.85783 -5.37985,1.97512 -1.39671,-0.53597 -1.2996,0.0902 0.60912,3.928 1.2489,2.51108 2.52316,4.58781 2.83168,4.61494 0.30852,0.0271 1.1378,-2.20141 1.84283,-4.95231 1.60715,-6.27076 3.5701,-5.60894 2.58006,0.86987 -0.38929,2.54747 -0.83851,5.30677 -0.99829,6.13177 -0.38242,1.97467 -1.43049,10.545 -1.85579,15.17535 -0.38937,4.23899 -2.1373,6.32962 -5.4816,6.55629 -1.86792,0.12661 -2.6685,-0.6467 -3.89072,-3.75817 -0.84637,-2.15467 -1.92554,-3.67859 -2.39815,-3.3865 -1.39103,0.85969 -1.04972,8.45185 0.36697,8.16303 0.67444,-0.1375 1.37452,0.875 1.55573,2.25 0.54998,4.17311 2.31745,9 3.29556,9 0.50735,0 0.92245,-0.54 0.92245,-1.2 0,-0.88259 0.29496,-0.90504 1.11512,-0.0849 0.82017,0.82016 0.65198,2.32786 -0.63586,5.7 -0.96303,2.52168 -2.02734,4.61931 -2.36512,4.66139 -5.83367,0.72677 -6.71609,1.43013 -8.13007,6.48037 -0.72975,2.60642 -2.8247,6.70129 -4.65545,9.09969 -3.68005,4.82114 -4.4647,7.68155 -1.32862,4.84343 1.1,-0.99549 2,-2.37773 2,-3.07165 0,-3.185 5.28469,-2.29371 6.85666,1.1564 1.09654,2.40664 3.14334,3.32316 3.14334,1.40754 0,-1.5666 5.9072,4.0475 9.05795,8.60852 2.9177,4.22365 3.02356,7.45347 0.33267,10.14919 -2.70324,2.70809 -7.27949,1.11947 -6.62579,-2.3001 0.37768,-1.97572 0.0587,-2.4499 -1.64825,-2.4499 -2.19846,0 -3.11678,3.49993 -1.09514,4.17381 0.56179,0.18727 1.07542,1.46227 1.1414,2.83334 0.19042,3.95672 -0.0827,4.99285 -1.31635,4.99285 -1.68459,0 -11.6243,-4.83148 -12.34769,-6.00194 -0.33926,-0.54893 -1.39868,-0.99806 -2.35427,-0.99806 -1.37056,0 -1.99157,1.48203 -2.94098,7.01856 -1.51724,8.84784 -1.55831,20.8829 -0.0573,16.77941 0.92166,-2.51958 1.33834,-2.68285 6.17105,-2.41797 2.96585,0.16256 7.84738,1.47742 11.41247,3.07399 l 6.22982,2.78993 -2.4998,1.96633 c -1.37488,1.08149 -3.16083,3.24466 -3.96878,4.80705 -0.82459,1.59458 -2.46083,2.98152 -3.73002,3.1617 -1.83236,0.26014 -2.35583,1.10726 -2.76103,4.46813 l -0.5,4.14714 -3.52413,-1.414 c -2.05254,-0.82355 -5.35114,-3.70362 -7.89943,-6.89713 -6.49769,-8.14292 -8.19514,-7.45164 -9.50545,3.87104 -0.53036,4.58295 -0.855,5.00784 -3.24632,4.24887 -3.45681,-1.09715 -6.30679,-11.8555 -6.31888,-23.85305 l -0.006,-5.75 -6.5,0 c -6.40891,0 -6.50089,-0.0385 -6.56324,-2.75 -0.0893,-3.88581 -0.59051,-13.51653 -0.7788,-14.96617 -0.38222,-2.94274 -16.27551,10.86496 -16.07901,13.96905 0.0629,0.99308 0.18169,0.99249 0.58333,-0.003 1.43565,-3.55792 10.7373,1.32012 11.88692,6.23383 0.38812,1.65889 0.82721,3.53574 0.97575,4.17077 0.14854,0.63504 1.62288,3.97321 3.2763,7.41817 3.43398,7.15481 3.43634,11.48866 0.008,15.43112 -2.34105,2.69245 -7.80967,3.52148 -7.80967,1.18394 0,-0.72169 -0.98891,-3.30919 -2.19759,-5.75 -1.20867,-2.44081 -2.08894,-5.00033 -1.95616,-5.68783 0.13278,-0.6875 -0.18602,-1.25 -0.70844,-1.25 -0.52243,0 -0.90166,2.75088 -0.84274,6.11306 0.0938,5.35419 0.39251,6.2431 2.40603,7.16052 2.085,0.94999 2.2989,1.70949 2.2989,8.16282 l 0,7.11536 -4.49053,1.97412 c -4.29053,1.8862 -5.75717,3.89155 -3.4167,4.67171 0.60102,0.20034 1.13961,2.01701 1.19687,4.03705 0.21228,7.48864 -6.42451,10.07631 -13.50445,5.26536 -4.16661,-2.83128 -7.62719,-3.15018 -11.64398,-1.07302 -1.51771,0.78484 -3.23258,1.12234 -3.81081,0.75 -1.72944,-1.11378 -4.32998,-6.89529 -4.32998,-9.6272 0,-1.40231 -0.45,-2.54966 -1,-2.54966 -0.55,0 -1,1.07254 -1,2.38342 0,1.74821 -0.66628,2.51079 -2.5,2.86133 -1.375,0.26285 -2.5,0.0311 -2.5,-0.51509 0,-0.58939 -1.72744,-0.76544 -4.25,-0.43313 -4.20836,0.55438 -4.22851,0.54231 -2.05655,-1.23283 l 2.19345,-1.7927 -2.04021,-6.8855 c -1.12212,-3.78703 -2.44667,-7.313 -2.94345,-7.8355 -1.70147,-1.78956 -0.90244,-4.11926 2.00105,-5.83439 3.81286,-2.25232 3.76922,-2.26951 4.52973,1.78439 0.36113,1.925 0.92211,3.5 1.24662,3.5 1.1277,0 5.23603,-5.02175 5.52681,-6.75561 0.23702,-1.41326 -0.40981,-1.72297 -3.40744,-1.63156 -3.13095,0.0955 -3.8448,-0.289 -4.64157,-2.5 -0.51787,-1.43705 -1.77787,-3.51283 -2.80001,-4.61283 -2.40674,-2.59007 -2.31535,-7.29515 0.18202,-9.37111 2.73841,-2.27633 3.06257,-5.12889 0.58284,-5.12889 -1.33393,0 -2.1599,0.89018 -2.57357,2.77365 -0.58648,2.6702 -4.59373,6.59049 -9.29972,9.09789 -1.2375,0.65936 -2.23531,0.84549 -2.21735,0.41364 0.0564,-1.35744 3.64215,-11.29331 4.32034,-11.9715 0.35585,-0.35586 0.64701,-1.24701 0.64701,-1.98035 0,-0.98126 -1.65033,-1.3027 -6.25,-1.21733 -3.4375,0.0638 -5.50081,0.31442 -4.58514,0.55693 2.69317,0.71327 2.83169,2.73089 0.75561,11.00597 -3.08677,12.30358 -3.08566,12.34002 0.54484,17.89092 3.94311,6.02887 3.38596,8.43018 -1.95598,8.43018 -1.86521,0 -3.66941,0.45 -4.00933,1 -0.35709,0.57778 0.59152,1 2.2467,1 3.20218,0 9.98056,4.43249 8.33431,5.44993 -2.9139,1.80089 -13.06112,4.59736 -18.93868,5.2193 l -6.64233,0.70288 5.82615,1.1901 c 3.20439,0.65455 6.33189,1.69583 6.95,2.31394 0.61812,0.61812 3.26268,1.12385 5.8768,1.12385 6.35721,0 9.84705,1.66782 9.84705,4.70597 0,2.68945 3.62539,6.72521 6.22338,6.92783 0.94358,0.0736 1.98466,-0.7139 2.3135,-1.75 0.36744,-1.15769 1.52564,-1.8838 3.00483,-1.8838 3.05733,0 5.45829,4.37689 5.45829,9.95034 l 0,4.04966 -5.4288,0 c -4.8308,0 -5.83758,-0.38553 -9.13988,-3.5 -2.84857,-2.68655 -4.56174,-3.5 -7.3712,-3.5 -2.01307,0 -4.23903,-0.5625 -4.94658,-1.25 -1.03725,-1.00785 -1.2474,-0.86257 -1.08484,0.75 0.43041,4.26966 0.12079,4.5 -6.04857,4.5 -4.70648,0 -6.88824,0.54818 -10,2.51254 -2.18907,1.3819 -3.98013,2.9569 -3.98013,3.5 0,0.54311 -0.63277,0.98746 -1.40616,0.98746 -0.9308,0 -1.64084,-1.70629 -2.10035,-5.0473 z M 376.2666,296.39842 c 0,-1.16862 -0.48504,-3.03107 -1.07787,-4.13878 -0.9516,-1.77809 -0.80518,-1.9726 1.25,-1.66051 1.46886,0.22305 2.18344,0.89825 1.93646,1.82975 -0.21527,0.81194 -0.35641,2.2549 -0.31363,3.20657 0.0428,0.95167 -0.34359,1.99073 -0.85859,2.30902 -0.515,0.31829 -0.93637,-0.37744 -0.93637,-1.54605 z m 78.25,-27.65556 c -0.73784,-0.29772 -1.21961,-2.2116 -1.17584,-4.67105 l 0.0742,-4.16667 1.85167,4 c 2.60938,5.63681 2.5282,6.1605 -0.75,4.83772 z m -1.25,-12.23073 c 0,-0.49116 0.65208,-1.14324 1.44907,-1.44907 0.96852,-0.37166 1.26467,-0.0755 0.89301,0.89301 -0.60696,1.58173 -2.34208,1.99368 -2.34208,0.55606 z m -109.78995,-1.61466 c -5.96447,-2.59138 -6.42657,-3.69547 -3.39075,-8.1016 1.47438,-2.1399 3.2432,-4.25059 3.9307,-4.69042 1.32752,-0.84929 1.77087,-6.73986 0.5,-6.64336 -0.4125,0.0313 -2.44434,2.28132 -4.5152,5 -2.28445,2.99908 -4.54577,4.94305 -5.75,4.94305 -1.74833,0 -1.98611,-0.68504 -1.99581,-5.75 -0.0228,-11.93577 -1.92786,-16.03076 -5.25068,-11.28677 -2.504,3.57496 -6.316,5.95997 -8.57974,5.36799 -3.0611,-0.8005 -2.68581,-2.49644 1.34143,-6.06189 2.25869,-1.99969 3.5,-3.99465 3.5,-5.62498 0,-1.38947 0.45,-2.80443 1,-3.14435 0.55,-0.33992 1,-1.58148 1,-2.75902 0,-1.66521 -0.26667,-1.87431 -1.2,-0.94098 -0.66,0.66 -1.50893,1.2 -1.8865,1.2 -1.11808,0 -1.59175,-5.52168 -0.56207,-6.55222 0.52084,-0.52128 4.59234,-0.79855 9.04778,-0.61615 7.84623,0.32121 8.20858,0.23479 11.5309,-2.75 1.88656,-1.6949 3.51781,-3.08163 3.625,-3.08163 0.10719,0 0.19489,1.10636 0.19489,2.45857 0,1.35222 1.0158,4.38972 2.25733,6.75 1.24153,2.36029 3.72976,7.21643 5.5294,10.79143 1.79963,3.575 5.53529,10.2762 8.30146,14.89156 l 5.02939,8.39155 -3.43144,1.74945 c -1.88729,0.96219 -4.57084,2.03541 -5.96344,2.38494 -1.3926,0.34952 -3.49981,1.74856 -4.68268,3.10899 -2.4311,2.79601 -4.81449,3.0363 -9.57997,0.96584 z"
       id="path3260"
       inkscape:connector-curvature="0" />
  </g>
</svg>
