<?xml version="1.0" encoding="UTF-8" standalone="no"?>
<!-- Created with Inkscape (http://www.inkscape.org/) -->
<svg xmlns:dc="http://purl.org/dc/elements/1.1/" xmlns:cc="http://creativecommons.org/ns#" xmlns:rdf="http://www.w3.org/1999/02/22-rdf-syntax-ns#" xmlns:svg="http://www.w3.org/2000/svg" xmlns="http://www.w3.org/2000/svg" xmlns:xlink="http://www.w3.org/1999/xlink" xmlns:sodipodi="http://sodipodi.sourceforge.net/DTD/sodipodi-0.dtd" xmlns:inkscape="http://www.inkscape.org/namespaces/inkscape" width="315.41678" height="181.35577" id="svg2" version="1.1" inkscape:version="0.47pre4 r22446" sodipodi:docname="tanque_comic.svg">
  <sodipodi:namedview id="base" pagecolor="#ffffff" bordercolor="#666666" borderopacity="1.0" inkscape:pageopacity="0.0" inkscape:pageshadow="2" inkscape:zoom="1" inkscape:cx="76.399372" inkscape:cy="100.40246" inkscape:document-units="px" inkscape:current-layer="layer1" showgrid="false" inkscape:window-width="1280" inkscape:window-height="949" inkscape:window-x="0" inkscape:window-y="24" inkscape:window-maximized="1"/>
  <defs id="defs4">
    <linearGradient id="linearGradient4204" inkscape:collect="always">
      <stop id="stop4206" offset="0" style="stop-color:#555753;stop-opacity:1"/>
      <stop id="stop4208" offset="1" style="stop-color:#ffffff;stop-opacity:0;"/>
    </linearGradient>
    <linearGradient id="linearGradient4198" inkscape:collect="always">
      <stop id="stop4200" offset="0" style="stop-color:#555753;stop-opacity:1"/>
      <stop id="stop4202" offset="1" style="stop-color:#000000;stop-opacity:0;"/>
    </linearGradient>
    <linearGradient inkscape:collect="always" id="linearGradient4180">
      <stop style="stop-color:#ffffff;stop-opacity:1;" offset="0" id="stop4182"/>
      <stop style="stop-color:#ffffff;stop-opacity:0;" offset="1" id="stop4184"/>
    </linearGradient>
    <linearGradient inkscape:collect="always" id="linearGradient4152">
      <stop style="stop-color:#ffffff;stop-opacity:0" offset="0" id="stop4154"/>
      <stop style="stop-color:#000000;stop-opacity:0;" offset="1" id="stop4156"/>
    </linearGradient>
    <inkscape:perspective sodipodi:type="inkscape:persp3d" inkscape:vp_x="0 : 526.18109 : 1" inkscape:vp_y="0 : 1000 : 0" inkscape:vp_z="744.09448 : 526.18109 : 1" inkscape:persp3d-origin="372.04724 : 350.78739 : 1" id="perspective10"/>
    <inkscape:perspective id="perspective2824" inkscape:persp3d-origin="0.5 : 0.33333333 : 1" inkscape:vp_z="1 : 0.5 : 1" inkscape:vp_y="0 : 1000 : 0" inkscape:vp_x="0 : 0.5 : 1" sodipodi:type="inkscape:persp3d"/>
    <filter inkscape:collect="always" id="filter4127" x="-0.040515551" width="1.0810311" y="-0.10099529" height="1.2019906">
      <feGaussianBlur inkscape:collect="always" stdDeviation="2.9036145" id="feGaussianBlur4129"/>
    </filter>
    <filter inkscape:collect="always" id="filter4140" x="-0.084890019" width="1.16978" y="-0.18143161" height="1.3628632">
      <feGaussianBlur inkscape:collect="always" stdDeviation="3.8554217" id="feGaussianBlur4142"/>
    </filter>
    <radialGradient inkscape:collect="always" xlink:href="#linearGradient4152" id="radialGradient4158" cx="-148.45906" cy="72.355774" fx="-148.45906" fy="72.355774" r="29.5" gradientTransform="matrix(1,0,0,0.94915254,0,3.6791071)" gradientUnits="userSpaceOnUse"/>
    <radialGradient inkscape:collect="always" xlink:href="#linearGradient4180" id="radialGradient4186" cx="-148.45906" cy="72.355774" fx="-148.45906" fy="72.355774" r="30.040966" gradientTransform="matrix(1,0,0,0.95006818,0,3.6128552)" gradientUnits="userSpaceOnUse"/>
    <filter inkscape:collect="always" id="filter4188">
      <feGaussianBlur inkscape:collect="always" stdDeviation="2.0791631" id="feGaussianBlur4190"/>
    </filter>
    <radialGradient inkscape:collect="always" xlink:href="#linearGradient4204" id="radialGradient4194" gradientUnits="userSpaceOnUse" gradientTransform="matrix(1,0,0,0.95006818,0,3.6128552)" cx="-148.45906" cy="72.355774" fx="-148.45906" fy="72.355774" r="30.040966"/>
    <radialGradient inkscape:collect="always" xlink:href="#linearGradient4198" id="radialGradient4196" gradientUnits="userSpaceOnUse" gradientTransform="matrix(1,0,0,0.94915254,0,3.6791071)" cx="-148.45906" cy="72.355774" fx="-148.45906" fy="72.355774" r="29.5"/>
    <radialGradient inkscape:collect="always" xlink:href="#linearGradient4204" id="radialGradient4212" gradientUnits="userSpaceOnUse" gradientTransform="matrix(1,0,0,0.95006818,0,3.6128552)" cx="-148.45906" cy="72.355774" fx="-148.45906" fy="72.355774" r="30.040966"/>
    <radialGradient inkscape:collect="always" xlink:href="#linearGradient4198" id="radialGradient4214" gradientUnits="userSpaceOnUse" gradientTransform="matrix(1,0,0,0.94915254,0,3.6791071)" cx="-148.45906" cy="72.355774" fx="-148.45906" fy="72.355774" r="29.5"/>
    <radialGradient inkscape:collect="always" xlink:href="#linearGradient4204" id="radialGradient4218" gradientUnits="userSpaceOnUse" gradientTransform="matrix(1,0,0,0.95006818,0,3.6128552)" cx="-148.45906" cy="72.355774" fx="-148.45906" fy="72.355774" r="30.040966"/>
    <radialGradient inkscape:collect="always" xlink:href="#linearGradient4198" id="radialGradient4220" gradientUnits="userSpaceOnUse" gradientTransform="matrix(1,0,0,0.94915254,0,3.6791071)" cx="-148.45906" cy="72.355774" fx="-148.45906" fy="72.355774" r="29.5"/>
    <radialGradient inkscape:collect="always" xlink:href="#linearGradient4204" id="radialGradient4224" gradientUnits="userSpaceOnUse" gradientTransform="matrix(1,0,0,0.95006818,0,3.6128552)" cx="-148.45906" cy="72.355774" fx="-148.45906" fy="72.355774" r="30.040966"/>
    <radialGradient inkscape:collect="always" xlink:href="#linearGradient4198" id="radialGradient4226" gradientUnits="userSpaceOnUse" gradientTransform="matrix(1,0,0,0.94915254,0,3.6791071)" cx="-148.45906" cy="72.355774" fx="-148.45906" fy="72.355774" r="29.5"/>
  </defs>
  <metadata id="metadata7">
    <rdf:RDF>
      <cc:Work rdf:about="">
        <dc:format>image/svg+xml</dc:format>
        <dc:type rdf:resource="http://purl.org/dc/dcmitype/StillImage"/>
        <dc:title/>
      </cc:Work>
    </rdf:RDF>
  </metadata>
  <g inkscape:label="Capa 1" inkscape:groupmode="layer" id="layer1" transform="translate(-104.18734,-215.98288)">
    <path sodipodi:nodetypes="ccccccc" id="path4861" d="m 135.20685,372.01104 c -6.4047,-5.33714 -1.79456,-25.68399 -13.16456,-52.04361 l 236.27912,0.35355 c -16.60433,10.84152 -30.31775,36.91545 -58.81775,47.91545 l -64.75529,0.6519 c -35.60517,0.36038 -70.51337,0.78168 -77.61219,0.90541 l -21.92933,2.2173 z" style="fill:#2e5b04;fill-opacity:1;stroke:none"/>
    <g id="g3983" transform="matrix(0.90953774,0.41562135,-0.41562135,0.90953774,285.14959,-137.01145)">
      <path transform="matrix(1.4609518,0,0,1.4609518,-23.137019,-232.44005)" d="m 187.85715,462.00504 c 0,10.45396 -8.47461,18.92857 -18.92858,18.92857 C 158.47461,480.93361 150,472.459 150,462.00504 c 0,-10.45397 8.47461,-18.92858 18.92857,-18.92858 10.45397,0 18.92858,8.47461 18.92858,18.92858 z" sodipodi:ry="18.928572" sodipodi:rx="18.928572" sodipodi:cy="462.00504" sodipodi:cx="168.92857" id="path3985" style="fill:#444643;fill-opacity:1;stroke:none" sodipodi:type="arc"/>
      <path transform="translate(51.68734,231.23288)" d="m 166.75832,229.3641 c -0.75166,0.75166 -4.10717,1.65077 -5.13396,1.37564 -1.0268,-0.27513 -3.4832,-2.73153 -3.75833,-3.75832 -0.27512,-1.0268 0.62398,-4.38231 1.37565,-5.13397 0.75166,-0.75167 4.10717,-1.65077 5.13396,-1.37564 1.0268,0.27513 3.4832,2.73153 3.75833,3.75832 0.27512,1.0268 -0.62398,4.3823 -1.37565,5.13397 z" inkscape:randomized="0" inkscape:rounded="0.2" inkscape:flatsided="true" sodipodi:arg2="1.3089969" sodipodi:arg1="0.78539816" sodipodi:r2="4.6029882" sodipodi:r1="5.315073" sodipodi:cy="225.60577" sodipodi:cx="163" sodipodi:sides="6" id="path3987" style="fill:#888a85;fill-opacity:1;stroke:none" sodipodi:type="star"/>
      <path sodipodi:type="star" style="fill:#888a85;fill-opacity:1;stroke:none" id="path3989" sodipodi:sides="6" sodipodi:cx="163" sodipodi:cy="225.60577" sodipodi:r1="5.315073" sodipodi:r2="4.6029882" sodipodi:arg1="0.78539816" sodipodi:arg2="1.3089969" inkscape:flatsided="true" inkscape:rounded="0.2" inkscape:randomized="0" d="m 166.75832,229.3641 c -0.75166,0.75166 -4.10717,1.65077 -5.13396,1.37564 -1.0268,-0.27513 -3.4832,-2.73153 -3.75833,-3.75832 -0.27512,-1.0268 0.62398,-4.38231 1.37565,-5.13397 0.75166,-0.75167 4.10717,-1.65077 5.13396,-1.37564 1.0268,0.27513 3.4832,2.73153 3.75833,3.75832 0.27512,1.0268 -0.62398,4.3823 -1.37565,5.13397 z" transform="translate(72.68734,203.23288)"/>
      <path transform="translate(43.18734,213.73288)" d="m 166.75832,229.3641 c -0.75166,0.75166 -4.10717,1.65077 -5.13396,1.37564 -1.0268,-0.27513 -3.4832,-2.73153 -3.75833,-3.75832 -0.27512,-1.0268 0.62398,-4.38231 1.37565,-5.13397 0.75166,-0.75167 4.10717,-1.65077 5.13396,-1.37564 1.0268,0.27513 3.4832,2.73153 3.75833,3.75832 0.27512,1.0268 -0.62398,4.3823 -1.37565,5.13397 z" inkscape:randomized="0" inkscape:rounded="0.2" inkscape:flatsided="true" sodipodi:arg2="1.3089969" sodipodi:arg1="0.78539816" sodipodi:r2="4.6029882" sodipodi:r1="5.315073" sodipodi:cy="225.60577" sodipodi:cx="163" sodipodi:sides="6" id="path3991" style="fill:#888a85;fill-opacity:1;stroke:none" sodipodi:type="star"/>
      <path sodipodi:type="star" style="fill:#888a85;fill-opacity:1;stroke:none" id="path3993" sodipodi:sides="6" sodipodi:cx="163" sodipodi:cy="225.60577" sodipodi:r1="5.315073" sodipodi:r2="4.6029882" sodipodi:arg1="0.78539816" sodipodi:arg2="1.3089969" inkscape:flatsided="true" inkscape:rounded="0.2" inkscape:randomized="0" d="m 166.75832,229.3641 c -0.75166,0.75166 -4.10717,1.65077 -5.13396,1.37564 -1.0268,-0.27513 -3.4832,-2.73153 -3.75833,-3.75832 -0.27512,-1.0268 0.62398,-4.38231 1.37565,-5.13397 0.75166,-0.75167 4.10717,-1.65077 5.13396,-1.37564 1.0268,0.27513 3.4832,2.73153 3.75833,3.75832 0.27512,1.0268 -0.62398,4.3823 -1.37565,5.13397 z" transform="translate(54.68734,198.73288)"/>
      <path transform="translate(69.93734,232.73288)" d="m 166.75832,229.3641 c -0.75166,0.75166 -4.10717,1.65077 -5.13396,1.37564 -1.0268,-0.27513 -3.4832,-2.73153 -3.75833,-3.75832 -0.27512,-1.0268 0.62398,-4.38231 1.37565,-5.13397 0.75166,-0.75167 4.10717,-1.65077 5.13396,-1.37564 1.0268,0.27513 3.4832,2.73153 3.75833,3.75832 0.27512,1.0268 -0.62398,4.3823 -1.37565,5.13397 z" inkscape:randomized="0" inkscape:rounded="0.2" inkscape:flatsided="true" sodipodi:arg2="1.3089969" sodipodi:arg1="0.78539816" sodipodi:r2="4.6029882" sodipodi:r1="5.315073" sodipodi:cy="225.60577" sodipodi:cx="163" sodipodi:sides="6" id="path3995" style="fill:#888a85;fill-opacity:1;stroke:none" sodipodi:type="star"/>
      <path transform="translate(77.68734,217.98288)" d="m 166.75832,229.3641 c -0.75166,0.75166 -4.10717,1.65077 -5.13396,1.37564 -1.0268,-0.27513 -3.4832,-2.73153 -3.75833,-3.75832 -0.27512,-1.0268 0.62398,-4.38231 1.37565,-5.13397 0.75166,-0.75167 4.10717,-1.65077 5.13396,-1.37564 1.0268,0.27513 3.4832,2.73153 3.75833,3.75832 0.27512,1.0268 -0.62398,4.3823 -1.37565,5.13397 z" inkscape:randomized="0" inkscape:rounded="0.2" inkscape:flatsided="true" sodipodi:arg2="1.3089969" sodipodi:arg1="0.78539816" sodipodi:r2="4.6029882" sodipodi:r1="5.315073" sodipodi:cy="225.60577" sodipodi:cx="163" sodipodi:sides="6" id="path3997" style="fill:#888a85;fill-opacity:1;stroke:none" sodipodi:type="star"/>
    </g>
    <path style="opacity:0.68979594;fill:#2e3436;fill-opacity:1;stroke:none" d="m 299.66201,331.46703 c -10.61948,1.75483 -18.81573,9.3405 -21.86043,18.94249 l 48.6527,-8.03973 c -5.97188,-8.11202 -16.1728,-12.6576 -26.79227,-10.90276 z" id="path3999"/>
    <g transform="translate(19.993164,-78.085786)" id="g3965">
      <path sodipodi:type="arc" style="fill:#444643;fill-opacity:1;stroke:none" id="path3967" sodipodi:cx="168.92857" sodipodi:cy="462.00504" sodipodi:rx="18.928572" sodipodi:ry="18.928572" d="m 187.85715,462.00504 c 0,10.45396 -8.47461,18.92857 -18.92858,18.92857 C 158.47461,480.93361 150,472.459 150,462.00504 c 0,-10.45397 8.47461,-18.92858 18.92857,-18.92858 10.45397,0 18.92858,8.47461 18.92858,18.92858 z" transform="matrix(1.4609518,0,0,1.4609518,-23.137019,-232.44005)"/>
      <path sodipodi:type="star" style="fill:#888a85;fill-opacity:1;stroke:none" id="path3969" sodipodi:sides="6" sodipodi:cx="163" sodipodi:cy="225.60577" sodipodi:r1="5.315073" sodipodi:r2="4.6029882" sodipodi:arg1="0.78539816" sodipodi:arg2="1.3089969" inkscape:flatsided="true" inkscape:rounded="0.2" inkscape:randomized="0" d="m 166.75832,229.3641 c -0.75166,0.75166 -4.10717,1.65077 -5.13396,1.37564 -1.0268,-0.27513 -3.4832,-2.73153 -3.75833,-3.75832 -0.27512,-1.0268 0.62398,-4.38231 1.37565,-5.13397 0.75166,-0.75167 4.10717,-1.65077 5.13396,-1.37564 1.0268,0.27513 3.4832,2.73153 3.75833,3.75832 0.27512,1.0268 -0.62398,4.3823 -1.37565,5.13397 z" transform="translate(51.68734,231.23288)"/>
      <path transform="translate(72.68734,203.23288)" d="m 166.75832,229.3641 c -0.75166,0.75166 -4.10717,1.65077 -5.13396,1.37564 -1.0268,-0.27513 -3.4832,-2.73153 -3.75833,-3.75832 -0.27512,-1.0268 0.62398,-4.38231 1.37565,-5.13397 0.75166,-0.75167 4.10717,-1.65077 5.13396,-1.37564 1.0268,0.27513 3.4832,2.73153 3.75833,3.75832 0.27512,1.0268 -0.62398,4.3823 -1.37565,5.13397 z" inkscape:randomized="0" inkscape:rounded="0.2" inkscape:flatsided="true" sodipodi:arg2="1.3089969" sodipodi:arg1="0.78539816" sodipodi:r2="4.6029882" sodipodi:r1="5.315073" sodipodi:cy="225.60577" sodipodi:cx="163" sodipodi:sides="6" id="path3971" style="fill:#888a85;fill-opacity:1;stroke:none" sodipodi:type="star"/>
      <path sodipodi:type="star" style="fill:#888a85;fill-opacity:1;stroke:none" id="path3973" sodipodi:sides="6" sodipodi:cx="163" sodipodi:cy="225.60577" sodipodi:r1="5.315073" sodipodi:r2="4.6029882" sodipodi:arg1="0.78539816" sodipodi:arg2="1.3089969" inkscape:flatsided="true" inkscape:rounded="0.2" inkscape:randomized="0" d="m 166.75832,229.3641 c -0.75166,0.75166 -4.10717,1.65077 -5.13396,1.37564 -1.0268,-0.27513 -3.4832,-2.73153 -3.75833,-3.75832 -0.27512,-1.0268 0.62398,-4.38231 1.37565,-5.13397 0.75166,-0.75167 4.10717,-1.65077 5.13396,-1.37564 1.0268,0.27513 3.4832,2.73153 3.75833,3.75832 0.27512,1.0268 -0.62398,4.3823 -1.37565,5.13397 z" transform="translate(43.18734,213.73288)"/>
      <path transform="translate(54.68734,198.73288)" d="m 166.75832,229.3641 c -0.75166,0.75166 -4.10717,1.65077 -5.13396,1.37564 -1.0268,-0.27513 -3.4832,-2.73153 -3.75833,-3.75832 -0.27512,-1.0268 0.62398,-4.38231 1.37565,-5.13397 0.75166,-0.75167 4.10717,-1.65077 5.13396,-1.37564 1.0268,0.27513 3.4832,2.73153 3.75833,3.75832 0.27512,1.0268 -0.62398,4.3823 -1.37565,5.13397 z" inkscape:randomized="0" inkscape:rounded="0.2" inkscape:flatsided="true" sodipodi:arg2="1.3089969" sodipodi:arg1="0.78539816" sodipodi:r2="4.6029882" sodipodi:r1="5.315073" sodipodi:cy="225.60577" sodipodi:cx="163" sodipodi:sides="6" id="path3975" style="fill:#888a85;fill-opacity:1;stroke:none" sodipodi:type="star"/>
      <path sodipodi:type="star" style="fill:#888a85;fill-opacity:1;stroke:none" id="path3977" sodipodi:sides="6" sodipodi:cx="163" sodipodi:cy="225.60577" sodipodi:r1="5.315073" sodipodi:r2="4.6029882" sodipodi:arg1="0.78539816" sodipodi:arg2="1.3089969" inkscape:flatsided="true" inkscape:rounded="0.2" inkscape:randomized="0" d="m 166.75832,229.3641 c -0.75166,0.75166 -4.10717,1.65077 -5.13396,1.37564 -1.0268,-0.27513 -3.4832,-2.73153 -3.75833,-3.75832 -0.27512,-1.0268 0.62398,-4.38231 1.37565,-5.13397 0.75166,-0.75167 4.10717,-1.65077 5.13396,-1.37564 1.0268,0.27513 3.4832,2.73153 3.75833,3.75832 0.27512,1.0268 -0.62398,4.3823 -1.37565,5.13397 z" transform="translate(69.93734,232.73288)"/>
      <path sodipodi:type="star" style="fill:#888a85;fill-opacity:1;stroke:none" id="path3979" sodipodi:sides="6" sodipodi:cx="163" sodipodi:cy="225.60577" sodipodi:r1="5.315073" sodipodi:r2="4.6029882" sodipodi:arg1="0.78539816" sodipodi:arg2="1.3089969" inkscape:flatsided="true" inkscape:rounded="0.2" inkscape:randomized="0" d="m 166.75832,229.3641 c -0.75166,0.75166 -4.10717,1.65077 -5.13396,1.37564 -1.0268,-0.27513 -3.4832,-2.73153 -3.75833,-3.75832 -0.27512,-1.0268 0.62398,-4.38231 1.37565,-5.13397 0.75166,-0.75167 4.10717,-1.65077 5.13396,-1.37564 1.0268,0.27513 3.4832,2.73153 3.75833,3.75832 0.27512,1.0268 -0.62398,4.3823 -1.37565,5.13397 z" transform="translate(77.68734,217.98288)"/>
    </g>
    <path id="path3981" d="m 238.66201,337.46703 c -10.61948,1.75483 -18.81573,9.3405 -21.86043,18.94249 l 48.6527,-8.03973 c -5.97188,-8.11202 -16.1728,-12.6576 -26.79227,-10.90276 z" style="opacity:0.68979594;fill:#2e3436;fill-opacity:1;stroke:none"/>
    <g id="g3179" transform="translate(-40,-79.5)">
      <path transform="matrix(1.4609518,0,0,1.4609518,-23.137019,-232.44005)" d="m 187.85715,462.00504 c 0,10.45396 -8.47461,18.92857 -18.92858,18.92857 C 158.47461,480.93361 150,472.459 150,462.00504 c 0,-10.45397 8.47461,-18.92858 18.92857,-18.92858 10.45397,0 18.92858,8.47461 18.92858,18.92858 z" sodipodi:ry="18.928572" sodipodi:rx="18.928572" sodipodi:cy="462.00504" sodipodi:cx="168.92857" id="path3157" style="fill:#444643;fill-opacity:1;stroke:none" sodipodi:type="arc"/>
      <path transform="translate(51.68734,231.23288)" d="m 166.75832,229.3641 c -0.75166,0.75166 -4.10717,1.65077 -5.13396,1.37564 -1.0268,-0.27513 -3.4832,-2.73153 -3.75833,-3.75832 -0.27512,-1.0268 0.62398,-4.38231 1.37565,-5.13397 0.75166,-0.75167 4.10717,-1.65077 5.13396,-1.37564 1.0268,0.27513 3.4832,2.73153 3.75833,3.75832 0.27512,1.0268 -0.62398,4.3823 -1.37565,5.13397 z" inkscape:randomized="0" inkscape:rounded="0.2" inkscape:flatsided="true" sodipodi:arg2="1.3089969" sodipodi:arg1="0.78539816" sodipodi:r2="4.6029882" sodipodi:r1="5.315073" sodipodi:cy="225.60577" sodipodi:cx="163" sodipodi:sides="6" id="path3167" style="fill:#888a85;fill-opacity:1;stroke:none" sodipodi:type="star"/>
      <path sodipodi:type="star" style="fill:#888a85;fill-opacity:1;stroke:none" id="path3169" sodipodi:sides="6" sodipodi:cx="163" sodipodi:cy="225.60577" sodipodi:r1="5.315073" sodipodi:r2="4.6029882" sodipodi:arg1="0.78539816" sodipodi:arg2="1.3089969" inkscape:flatsided="true" inkscape:rounded="0.2" inkscape:randomized="0" d="m 166.75832,229.3641 c -0.75166,0.75166 -4.10717,1.65077 -5.13396,1.37564 -1.0268,-0.27513 -3.4832,-2.73153 -3.75833,-3.75832 -0.27512,-1.0268 0.62398,-4.38231 1.37565,-5.13397 0.75166,-0.75167 4.10717,-1.65077 5.13396,-1.37564 1.0268,0.27513 3.4832,2.73153 3.75833,3.75832 0.27512,1.0268 -0.62398,4.3823 -1.37565,5.13397 z" transform="translate(72.68734,203.23288)"/>
      <path transform="translate(43.18734,213.73288)" d="m 166.75832,229.3641 c -0.75166,0.75166 -4.10717,1.65077 -5.13396,1.37564 -1.0268,-0.27513 -3.4832,-2.73153 -3.75833,-3.75832 -0.27512,-1.0268 0.62398,-4.38231 1.37565,-5.13397 0.75166,-0.75167 4.10717,-1.65077 5.13396,-1.37564 1.0268,0.27513 3.4832,2.73153 3.75833,3.75832 0.27512,1.0268 -0.62398,4.3823 -1.37565,5.13397 z" inkscape:randomized="0" inkscape:rounded="0.2" inkscape:flatsided="true" sodipodi:arg2="1.3089969" sodipodi:arg1="0.78539816" sodipodi:r2="4.6029882" sodipodi:r1="5.315073" sodipodi:cy="225.60577" sodipodi:cx="163" sodipodi:sides="6" id="path3171" style="fill:#888a85;fill-opacity:1;stroke:none" sodipodi:type="star"/>
      <path sodipodi:type="star" style="fill:#888a85;fill-opacity:1;stroke:none" id="path3173" sodipodi:sides="6" sodipodi:cx="163" sodipodi:cy="225.60577" sodipodi:r1="5.315073" sodipodi:r2="4.6029882" sodipodi:arg1="0.78539816" sodipodi:arg2="1.3089969" inkscape:flatsided="true" inkscape:rounded="0.2" inkscape:randomized="0" d="m 166.75832,229.3641 c -0.75166,0.75166 -4.10717,1.65077 -5.13396,1.37564 -1.0268,-0.27513 -3.4832,-2.73153 -3.75833,-3.75832 -0.27512,-1.0268 0.62398,-4.38231 1.37565,-5.13397 0.75166,-0.75167 4.10717,-1.65077 5.13396,-1.37564 1.0268,0.27513 3.4832,2.73153 3.75833,3.75832 0.27512,1.0268 -0.62398,4.3823 -1.37565,5.13397 z" transform="translate(54.68734,198.73288)"/>
      <path transform="translate(69.93734,232.73288)" d="m 166.75832,229.3641 c -0.75166,0.75166 -4.10717,1.65077 -5.13396,1.37564 -1.0268,-0.27513 -3.4832,-2.73153 -3.75833,-3.75832 -0.27512,-1.0268 0.62398,-4.38231 1.37565,-5.13397 0.75166,-0.75167 4.10717,-1.65077 5.13396,-1.37564 1.0268,0.27513 3.4832,2.73153 3.75833,3.75832 0.27512,1.0268 -0.62398,4.3823 -1.37565,5.13397 z" inkscape:randomized="0" inkscape:rounded="0.2" inkscape:flatsided="true" sodipodi:arg2="1.3089969" sodipodi:arg1="0.78539816" sodipodi:r2="4.6029882" sodipodi:r1="5.315073" sodipodi:cy="225.60577" sodipodi:cx="163" sodipodi:sides="6" id="path3175" style="fill:#888a85;fill-opacity:1;stroke:none" sodipodi:type="star"/>
      <path transform="translate(77.68734,217.98288)" d="m 166.75832,229.3641 c -0.75166,0.75166 -4.10717,1.65077 -5.13396,1.37564 -1.0268,-0.27513 -3.4832,-2.73153 -3.75833,-3.75832 -0.27512,-1.0268 0.62398,-4.38231 1.37565,-5.13397 0.75166,-0.75167 4.10717,-1.65077 5.13396,-1.37564 1.0268,0.27513 3.4832,2.73153 3.75833,3.75832 0.27512,1.0268 -0.62398,4.3823 -1.37565,5.13397 z" inkscape:randomized="0" inkscape:rounded="0.2" inkscape:flatsided="true" sodipodi:arg2="1.3089969" sodipodi:arg1="0.78539816" sodipodi:r2="4.6029882" sodipodi:r1="5.315073" sodipodi:cy="225.60577" sodipodi:cx="163" sodipodi:sides="6" id="path3177" style="fill:#888a85;fill-opacity:1;stroke:none" sodipodi:type="star"/>
    </g>
    <rect style="fill:#2e5b04;fill-opacity:1;stroke:none" id="rect2866" width="115" height="13" x="58" y="63.355774" transform="translate(104.18734,215.98288)"/>
    <path style="fill:#4e9a06;fill-opacity:1;stroke:none" d="m 218.71062,215.98288 c -10.86291,0 -13.25923,0.2994 -19.26724,2.42651 -9.37456,3.31904 -18.02598,7.1226 -24.15647,14.1607 -12.18657,13.99078 -21.29537,51.42758 -21.29537,51.42758 l 9.45254,0.32595 c 5.19644,0.17257 34.3183,0.39716 64.71907,0.50703 l 55.26654,0.2173 -0.57946,-8.83685 c -0.29241,-4.45147 -0.90216,-8.48097 -1.88327,-12.34986 l 110.85898,3.1856 8.08919,7.7655 19.689,-6.96728 0,-29.11815 -18.49282,-7.5839 -10.45497,8.41139 -119.28678,3.40985 c -7.66985,-10.98332 -19.29435,-19.56372 -33.39171,-24.55486 -6.00799,-2.12711 -8.40435,-2.42651 -19.26723,-2.42651 z" id="path3686" sodipodi:nodetypes="csacccccccccccccsc"/>
    <path style="fill:#4e9a06;fill-opacity:1;stroke:none" d="m 142.70685,286.96743 c -6.4047,5.33714 -11.79456,13.18399 -23.16456,39.54361 l 238.94029,-5.5 c -16.60433,-10.84152 -31.97892,-21.269 -60.47892,-32.269 l -64.75529,-0.6519 c -35.60517,-0.36038 -70.51337,-0.78168 -77.61219,-0.90541 l -12.92933,-0.2173 z" id="path2827" sodipodi:nodetypes="ccccccc"/>
    <path style="fill:#2e3436;fill-opacity:1;stroke:none;opacity:0.68979592" d="m 183.43734,335.95163 c -10.76349,0 -20.08682,6.14788 -24.65625,15.125 l 49.3125,0 c -4.56943,-8.97712 -13.89276,-15.125 -24.65625,-15.125 z" id="path2832"/>
    <g id="g3721" transform="matrix(0.58490579,0,0,0.58490579,-81.984403,63.627373)" style="fill:#444643;fill-opacity:1">
      <path transform="matrix(1.5358008,0,0,1.5358008,108.60844,-213.86303)" d="m 187.85715,462.00504 c 0,10.45396 -8.47461,18.92857 -18.92858,18.92857 C 158.47461,480.93361 150,472.459 150,462.00504 c 0,-10.45397 8.47461,-18.92858 18.92857,-18.92858 10.45397,0 18.92858,8.47461 18.92858,18.92858 z" sodipodi:ry="18.928572" sodipodi:rx="18.928572" sodipodi:cy="462.00504" sodipodi:cx="168.92857" id="path3723" style="fill:#444643;fill-opacity:1;stroke:none" sodipodi:type="arc"/>
      <g id="g3725" transform="translate(121.62237,-3.0129153)" style="fill:#444643;fill-opacity:1">
        <rect ry="6.0104074" y="461.22092" x="240.41631" height="24.04163" width="12.020815" id="rect3727" style="fill:#444643;fill-opacity:1;stroke:none"/>
        <rect style="fill:#444643;fill-opacity:1;stroke:none" id="rect3729" width="12.020815" height="24.04163" x="240.41631" y="512.13263" ry="6.0104074"/>
      </g>
      <g transform="matrix(0.70710678,-0.70710678,0.70710678,0.70710678,-158.83336,317.30223)" id="g3731" style="fill:#444643;fill-opacity:1">
        <rect style="fill:#444643;fill-opacity:1;stroke:none" id="rect3733" width="12.020815" height="24.04163" x="240.41631" y="461.22092" ry="6.0104074"/>
        <rect ry="6.0104074" y="512.13263" x="240.41631" height="24.04163" width="12.020815" id="rect3735" style="fill:#444643;fill-opacity:1;stroke:none"/>
      </g>
      <g id="g3737" transform="matrix(0,-1,1,0,-130.6485,742.11139)" style="fill:#444643;fill-opacity:1">
        <rect ry="6.0104074" y="461.22092" x="240.41631" height="24.04163" width="12.020815" id="rect3739" style="fill:#444643;fill-opacity:1;stroke:none"/>
        <rect style="fill:#444643;fill-opacity:1;stroke:none" id="rect3741" width="12.020815" height="24.04163" x="240.41631" y="512.13263" ry="6.0104074"/>
      </g>
      <g transform="matrix(-0.70710678,-0.70710678,0.70710678,-0.70710678,189.66664,1022.5671)" id="g3743" style="fill:#444643;fill-opacity:1">
        <rect style="fill:#444643;fill-opacity:1;stroke:none" id="rect3745" width="12.020815" height="24.04163" x="240.41631" y="461.22092" ry="6.0104074"/>
        <rect ry="6.0104074" y="512.13263" x="240.41631" height="24.04163" width="12.020815" id="rect3747" style="fill:#444643;fill-opacity:1;stroke:none"/>
      </g>
    </g>
    <path style="fill:#444643;fill-opacity:1;stroke:none" d="m 344.28109,324.13913 c -1.50335,0 -2.71875,1.2154 -2.71875,2.71875 l 0,1.375 c -1.59727,0.33932 -3.11298,0.95004 -4.4375,1.8125 l -0.96875,-0.96875 c -1.06303,-1.06303 -2.78072,-1.06303 -3.84375,0 -1.06303,1.06303 -1.06303,2.78072 0,3.84375 l 1,1 c -0.87234,1.33709 -1.53674,2.82242 -1.875,4.4375 l -1.34375,0 c -1.50335,0 -2.71875,1.18415 -2.71875,2.6875 0,1.50335 1.2154,2.71875 2.71875,2.71875 l 1.34375,0 c 0.33716,1.60898 0.97631,3.10424 1.84375,4.4375 l -0.96875,0.96875 c -1.06303,1.06303 -1.06303,2.78072 0,3.84375 1.06303,1.06303 2.78072,1.06303 3.84375,0 l 0.96875,-0.96875 c 1.32797,0.867 2.83471,1.50331 4.4375,1.84375 l 0,1.375 c 0,1.50335 1.2154,2.71875 2.71875,2.71875 1.50335,0 2.71875,-1.2154 2.71875,-2.71875 l 0,-1.375 c 1.62214,-0.3409 3.12766,-0.96432 4.46875,-1.84375 l 0.9375,0.96875 c 1.06303,1.06303 2.78072,1.06303 3.84375,0 1.06303,-1.06303 1.06303,-2.78072 0,-3.84375 l -0.96875,-0.9375 c 0.87835,-1.34029 1.50312,-2.8479 1.84375,-4.46875 l 1.375,0 c 1.50335,0 2.71875,-1.2154 2.71875,-2.71875 0,-1.50335 -1.2154,-2.6875 -2.71875,-2.6875 l -1.375,0 c -0.34054,-1.62146 -0.96511,-3.12801 -1.84375,-4.46875 l 0.96875,-0.96875 c 1.06303,-1.06303 1.06303,-2.78072 0,-3.84375 -1.06303,-1.06303 -2.78072,-1.06303 -3.84375,0 l -0.96875,0.96875 c -1.3322,-0.86746 -2.82972,-1.47461 -4.4375,-1.8125 l 0,-1.375 c 0,-1.50335 -1.2154,-2.71875 -2.71875,-2.71875 z" id="path4289"/>
    <path style="fill:#73d216;stroke:none;stroke-width:1px;stroke-linecap:butt;stroke-linejoin:miter;stroke-opacity:1" d="m 57.629203,63.268941 22.273863,0.707107 c 0,0 11.889714,-52.535451 28.991374,-56.9220958 C 74.953322,-3.5526495 57.629203,63.268941 57.629203,63.268941 z" id="path4336" transform="translate(104.18734,215.98288)" sodipodi:nodetypes="cccc"/>
    <path style="fill:#73d216;stroke:none;stroke-width:1px;stroke-linecap:butt;stroke-linejoin:miter;stroke-opacity:1;fill-opacity:1" d="M 286.375 25.78125 L 177.78125 28.59375 C 178.48131 29.283577 179.31201 30.138361 180.1875 31.15625 L 285.65625 32.875 L 286.375 25.78125 z " transform="translate(104.18734,215.98288)" id="path4850"/>
    <path style="fill:#000000;stroke:none;stroke-width:1px;stroke-linecap:butt;stroke-linejoin:miter;stroke-opacity:1;opacity:0.40613027" d="m 167.05397,26.852942 c 0,0 10.60661,18.031223 9.54595,20.85965 l 11.13693,0.353553 C 187.3833,36.04533 175.71604,26.676166 175.71604,26.676166 l -8.66207,0.176776 z" id="path4848" transform="translate(104.18734,215.98288)" sodipodi:nodetypes="ccccc"/>
    <path style="fill:#73d216;stroke:none;stroke-width:1px;stroke-linecap:butt;stroke-linejoin:miter;stroke-opacity:1;fill-opacity:1" d="m 287.25,25.730774 -0.125,6 10.75,-2.25 -1,-10.75 -9.625,7 z" id="path4855" transform="translate(104.18734,215.98288)"/>
    <path id="path4857" d="m 419.56234,240.21365 -1,5.25 -15,0.125 -0.625,-11.625 16.625,6.25 z" style="fill:#73d216;fill-opacity:1;stroke:none" sodipodi:nodetypes="ccccc"/>
    <path style="fill:#73d216;stroke:none;stroke-width:1px;stroke-linecap:butt;stroke-linejoin:miter;stroke-opacity:1;fill-opacity:1" d="m 299.45972,30.211699 -3.35875,27.577165 1.41421,-27.753941 1.94454,0.176776 z" id="path4859" transform="translate(104.18734,215.98288)" sodipodi:nodetypes="cccc"/>
    <path sodipodi:type="star" style="fill:#ffffff;fill-opacity:1;stroke:none" id="path2864" sodipodi:sides="5" sodipodi:cx="104.5" sodipodi:cy="26.355774" sodipodi:r1="24.758837" sodipodi:r2="12.379418" sodipodi:arg1="0.81396182" sodipodi:arg2="1.4422804" inkscape:flatsided="false" inkscape:rounded="0" inkscape:randomized="0" d="M 121.5,44.355774 106.08658,38.633102 92.634272,48.086041 93.313847,31.658601 80.166577,21.785817 96,17.355774 l 5.32685,-15.5546552 9.10601,13.6895222 16.43945,0.259478 -10.2056,12.890634 4.83329,15.715021 z" transform="matrix(0.75166526,0.127138,-0.127138,0.75166526,147.6752,225.51598)"/>
    <g id="g2871" transform="matrix(0.9951045,-0.09882834,0.09882834,0.9951045,17.875195,175.66522)">
      <rect ry="4.25" y="176.33865" x="202.18735" height="8.5" width="31.123922" id="rect2855" style="fill:#888a85;fill-opacity:1;stroke:none"/>
      <path sodipodi:nodetypes="csssc" id="path2857" d="m 231.2532,180.56721 c 0,1.58782 -3.28718,2.875 -4.875,2.875 -1.58782,0 -2.875,-1.28718 -2.875,-2.875 0,-1.58782 3.28718,-2.875 4.875,-2.875 1.58782,0 2.875,1.28718 2.875,2.875 z" style="color:#000000;fill:#382509;fill-opacity:1;fill-rule:evenodd;stroke:#000000;stroke-width:1px;stroke-linecap:butt;stroke-linejoin:miter;stroke-miterlimit:4;stroke-opacity:1;stroke-dashoffset:0;marker:none;visibility:visible;display:inline;overflow:visible;enable-background:accumulate"/>
      <path style="color:#000000;fill:#382509;fill-opacity:1;fill-rule:evenodd;stroke:#000000;stroke-width:1px;stroke-linecap:butt;stroke-linejoin:miter;stroke-miterlimit:4;stroke-opacity:1;stroke-dashoffset:0;marker:none;visibility:visible;display:inline;overflow:visible;enable-background:accumulate" d="m 210.83235,182.28196 c -0.73886,1.40544 -4.24743,1.01516 -5.65287,0.27631 -1.40544,-0.73886 -1.94581,-2.47715 -1.20696,-3.88259 0.73886,-1.40544 4.24743,-1.01516 5.65287,-0.27631 1.40544,0.73886 1.94581,2.47715 1.20696,3.88259 z" id="path2861" sodipodi:nodetypes="csssc"/>
      <path id="rect2868" d="m 213.02941,176.39896 c 1.19231,1.13145 1.90625,2.6161 1.90625,4.25 0,1.6339 -0.71394,3.11855 -1.90625,4.25 l 9.84375,0 c -1.19948,-1.13145 -1.9375,-2.6161 -1.9375,-4.25 0,-1.6339 0.73802,-3.11855 1.9375,-4.25 l -9.84375,0 z" style="fill:#555753;fill-opacity:1;stroke:none"/>
    </g>
    <g transform="matrix(0.95930288,-0.28237914,0.28237914,0.95930288,12.659561,219.45227)" id="g2887">
      <rect style="fill:#888a85;fill-opacity:1;stroke:none" id="rect2889" width="31.123922" height="8.5" x="202.18735" y="176.33865" ry="4.25"/>
      <path style="color:#000000;fill:#382509;fill-opacity:1;fill-rule:evenodd;stroke:#000000;stroke-width:1px;stroke-linecap:butt;stroke-linejoin:miter;stroke-miterlimit:4;stroke-opacity:1;stroke-dashoffset:0;marker:none;visibility:visible;display:inline;overflow:visible;enable-background:accumulate" d="m 231.2532,180.56721 c 0,1.58782 -3.28718,2.875 -4.875,2.875 -1.58782,0 -2.875,-1.28718 -2.875,-2.875 0,-1.58782 3.28718,-2.875 4.875,-2.875 1.58782,0 2.875,1.28718 2.875,2.875 z" id="path2891" sodipodi:nodetypes="csssc"/>
      <path sodipodi:nodetypes="csssc" id="path2893" d="m 210.83235,182.28196 c -0.73886,1.40544 -4.24743,1.01516 -5.65287,0.27631 -1.40544,-0.73886 -1.94581,-2.47715 -1.20696,-3.88259 0.73886,-1.40544 4.24743,-1.01516 5.65287,-0.27631 1.40544,0.73886 1.94581,2.47715 1.20696,3.88259 z" style="color:#000000;fill:#382509;fill-opacity:1;fill-rule:evenodd;stroke:#000000;stroke-width:1px;stroke-linecap:butt;stroke-linejoin:miter;stroke-miterlimit:4;stroke-opacity:1;stroke-dashoffset:0;marker:none;visibility:visible;display:inline;overflow:visible;enable-background:accumulate"/>
      <path style="fill:#555753;fill-opacity:1;stroke:none" d="m 213.02941,176.39896 c 1.19231,1.13145 1.90625,2.6161 1.90625,4.25 0,1.6339 -0.71394,3.11855 -1.90625,4.25 l 9.84375,0 c -1.19948,-1.13145 -1.9375,-2.6161 -1.9375,-4.25 0,-1.6339 0.73802,-3.11855 1.9375,-4.25 l -9.84375,0 z" id="path2895"/>
    </g>
    <g id="g2907" transform="matrix(0.99999959,8.9727416e-4,-8.9727416e-4,0.99999959,75.814036,146.53058)">
      <rect ry="4.25" y="176.33865" x="202.18735" height="8.5" width="31.123922" id="rect2909" style="fill:#888a85;fill-opacity:1;stroke:none"/>
      <path sodipodi:nodetypes="csssc" id="path2911" d="m 231.2532,180.56721 c 0,1.58782 -3.28718,2.875 -4.875,2.875 -1.58782,0 -2.875,-1.28718 -2.875,-2.875 0,-1.58782 3.28718,-2.875 4.875,-2.875 1.58782,0 2.875,1.28718 2.875,2.875 z" style="color:#000000;fill:#382509;fill-opacity:1;fill-rule:evenodd;stroke:#000000;stroke-width:1px;stroke-linecap:butt;stroke-linejoin:miter;stroke-miterlimit:4;stroke-opacity:1;stroke-dashoffset:0;marker:none;visibility:visible;display:inline;overflow:visible;enable-background:accumulate"/>
      <path style="color:#000000;fill:#382509;fill-opacity:1;fill-rule:evenodd;stroke:#000000;stroke-width:1px;stroke-linecap:butt;stroke-linejoin:miter;stroke-miterlimit:4;stroke-opacity:1;stroke-dashoffset:0;marker:none;visibility:visible;display:inline;overflow:visible;enable-background:accumulate" d="m 210.83235,182.28196 c -0.73886,1.40544 -4.24743,1.01516 -5.65287,0.27631 -1.40544,-0.73886 -1.94581,-2.47715 -1.20696,-3.88259 0.73886,-1.40544 4.24743,-1.01516 5.65287,-0.27631 1.40544,0.73886 1.94581,2.47715 1.20696,3.88259 z" id="path2913" sodipodi:nodetypes="csssc"/>
      <path id="path2915" d="m 213.02941,176.39896 c 1.19231,1.13145 1.90625,2.6161 1.90625,4.25 0,1.6339 -0.71394,3.11855 -1.90625,4.25 l 9.84375,0 c -1.19948,-1.13145 -1.9375,-2.6161 -1.9375,-4.25 0,-1.6339 0.73802,-3.11855 1.9375,-4.25 l -9.84375,0 z" style="fill:#555753;fill-opacity:1;stroke:none"/>
    </g>
    <g transform="matrix(0.9927375,-0.12030066,0.12030066,0.9927375,76.364712,173.17234)" id="g2917" inkscape:transform-center-x="-2.4748737" inkscape:transform-center-y="2.4748737">
      <rect style="fill:#888a85;fill-opacity:1;stroke:none" id="rect2919" width="31.123922" height="8.5" x="202.18735" y="176.33865" ry="4.25"/>
      <path style="color:#000000;fill:#382509;fill-opacity:1;fill-rule:evenodd;stroke:#000000;stroke-width:1px;stroke-linecap:butt;stroke-linejoin:miter;stroke-miterlimit:4;stroke-opacity:1;stroke-dashoffset:0;marker:none;visibility:visible;display:inline;overflow:visible;enable-background:accumulate" d="m 231.2532,180.56721 c 0,1.58782 -3.28718,2.875 -4.875,2.875 -1.58782,0 -2.875,-1.28718 -2.875,-2.875 0,-1.58782 3.28718,-2.875 4.875,-2.875 1.58782,0 2.875,1.28718 2.875,2.875 z" id="path2921" sodipodi:nodetypes="csssc"/>
      <path sodipodi:nodetypes="csssc" id="path2923" d="m 210.83235,182.28196 c -0.73886,1.40544 -4.24743,1.01516 -5.65287,0.27631 -1.40544,-0.73886 -1.94581,-2.47715 -1.20696,-3.88259 0.73886,-1.40544 4.24743,-1.01516 5.65287,-0.27631 1.40544,0.73886 1.94581,2.47715 1.20696,3.88259 z" style="color:#000000;fill:#382509;fill-opacity:1;fill-rule:evenodd;stroke:#000000;stroke-width:1px;stroke-linecap:butt;stroke-linejoin:miter;stroke-miterlimit:4;stroke-opacity:1;stroke-dashoffset:0;marker:none;visibility:visible;display:inline;overflow:visible;enable-background:accumulate"/>
      <path style="fill:#555753;fill-opacity:1;stroke:none" d="m 213.02941,176.39896 c 1.19231,1.13145 1.90625,2.6161 1.90625,4.25 0,1.6339 -0.71394,3.11855 -1.90625,4.25 l 9.84375,0 c -1.19948,-1.13145 -1.9375,-2.6161 -1.9375,-4.25 0,-1.6339 0.73802,-3.11855 1.9375,-4.25 l -9.84375,0 z" id="path2925"/>
    </g>
    <g inkscape:transform-center-y="2.4748737" inkscape:transform-center-x="-2.4748737" id="g2927" transform="matrix(0.9927375,-0.12030066,0.12030066,0.9927375,76.364712,173.17234)">
      <rect ry="4.25" y="176.33865" x="202.18735" height="8.5" width="31.123922" id="rect2929" style="fill:#888a85;fill-opacity:1;stroke:none"/>
      <path sodipodi:nodetypes="csssc" id="path2931" d="m 231.2532,180.56721 c 0,1.58782 -3.28718,2.875 -4.875,2.875 -1.58782,0 -2.875,-1.28718 -2.875,-2.875 0,-1.58782 3.28718,-2.875 4.875,-2.875 1.58782,0 2.875,1.28718 2.875,2.875 z" style="color:#000000;fill:#382509;fill-opacity:1;fill-rule:evenodd;stroke:#000000;stroke-width:1px;stroke-linecap:butt;stroke-linejoin:miter;stroke-miterlimit:4;stroke-opacity:1;stroke-dashoffset:0;marker:none;visibility:visible;display:inline;overflow:visible;enable-background:accumulate"/>
      <path style="color:#000000;fill:#382509;fill-opacity:1;fill-rule:evenodd;stroke:#000000;stroke-width:1px;stroke-linecap:butt;stroke-linejoin:miter;stroke-miterlimit:4;stroke-opacity:1;stroke-dashoffset:0;marker:none;visibility:visible;display:inline;overflow:visible;enable-background:accumulate" d="m 210.83235,182.28196 c -0.73886,1.40544 -4.24743,1.01516 -5.65287,0.27631 -1.40544,-0.73886 -1.94581,-2.47715 -1.20696,-3.88259 0.73886,-1.40544 4.24743,-1.01516 5.65287,-0.27631 1.40544,0.73886 1.94581,2.47715 1.20696,3.88259 z" id="path2933" sodipodi:nodetypes="csssc"/>
      <path id="path2935" d="m 213.02941,176.39896 c 1.19231,1.13145 1.90625,2.6161 1.90625,4.25 0,1.6339 -0.71394,3.11855 -1.90625,4.25 l 9.84375,0 c -1.19948,-1.13145 -1.9375,-2.6161 -1.9375,-4.25 0,-1.6339 0.73802,-3.11855 1.9375,-4.25 l -9.84375,0 z" style="fill:#555753;fill-opacity:1;stroke:none"/>
    </g>
    <g transform="matrix(0.9927375,-0.12030066,0.12030066,0.9927375,97.577915,171.05102)" id="g2937" inkscape:transform-center-x="-2.4748737" inkscape:transform-center-y="2.4748737">
      <rect style="fill:#888a85;fill-opacity:1;stroke:none" id="rect2939" width="31.123922" height="8.5" x="202.18735" y="176.33865" ry="4.25"/>
      <path style="color:#000000;fill:#382509;fill-opacity:1;fill-rule:evenodd;stroke:#000000;stroke-width:1px;stroke-linecap:butt;stroke-linejoin:miter;stroke-miterlimit:4;stroke-opacity:1;stroke-dashoffset:0;marker:none;visibility:visible;display:inline;overflow:visible;enable-background:accumulate" d="m 231.2532,180.56721 c 0,1.58782 -3.28718,2.875 -4.875,2.875 -1.58782,0 -2.875,-1.28718 -2.875,-2.875 0,-1.58782 3.28718,-2.875 4.875,-2.875 1.58782,0 2.875,1.28718 2.875,2.875 z" id="path2941" sodipodi:nodetypes="csssc"/>
      <path sodipodi:nodetypes="csssc" id="path2943" d="m 210.83235,182.28196 c -0.73886,1.40544 -4.24743,1.01516 -5.65287,0.27631 -1.40544,-0.73886 -1.94581,-2.47715 -1.20696,-3.88259 0.73886,-1.40544 4.24743,-1.01516 5.65287,-0.27631 1.40544,0.73886 1.94581,2.47715 1.20696,3.88259 z" style="color:#000000;fill:#382509;fill-opacity:1;fill-rule:evenodd;stroke:#000000;stroke-width:1px;stroke-linecap:butt;stroke-linejoin:miter;stroke-miterlimit:4;stroke-opacity:1;stroke-dashoffset:0;marker:none;visibility:visible;display:inline;overflow:visible;enable-background:accumulate"/>
      <path style="fill:#555753;fill-opacity:1;stroke:none" d="m 213.02941,176.39896 c 1.19231,1.13145 1.90625,2.6161 1.90625,4.25 0,1.6339 -0.71394,3.11855 -1.90625,4.25 l 9.84375,0 c -1.19948,-1.13145 -1.9375,-2.6161 -1.9375,-4.25 0,-1.6339 0.73802,-3.11855 1.9375,-4.25 l -9.84375,0 z" id="path2945"/>
    </g>
    <g inkscape:transform-center-y="3.3637908" inkscape:transform-center-x="-0.96691336" id="g2947" transform="matrix(0.92683403,0.37547127,-0.37547127,0.92683403,221.16438,78.362235)">
      <rect ry="4.25" y="176.33865" x="202.18735" height="8.5" width="31.123922" id="rect2949" style="fill:#888a85;fill-opacity:1;stroke:none"/>
      <path sodipodi:nodetypes="csssc" id="path2951" d="m 231.2532,180.56721 c 0,1.58782 -3.28718,2.875 -4.875,2.875 -1.58782,0 -2.875,-1.28718 -2.875,-2.875 0,-1.58782 3.28718,-2.875 4.875,-2.875 1.58782,0 2.875,1.28718 2.875,2.875 z" style="color:#000000;fill:#382509;fill-opacity:1;fill-rule:evenodd;stroke:#000000;stroke-width:1px;stroke-linecap:butt;stroke-linejoin:miter;stroke-miterlimit:4;stroke-opacity:1;stroke-dashoffset:0;marker:none;visibility:visible;display:inline;overflow:visible;enable-background:accumulate"/>
      <path style="color:#000000;fill:#382509;fill-opacity:1;fill-rule:evenodd;stroke:#000000;stroke-width:1px;stroke-linecap:butt;stroke-linejoin:miter;stroke-miterlimit:4;stroke-opacity:1;stroke-dashoffset:0;marker:none;visibility:visible;display:inline;overflow:visible;enable-background:accumulate" d="m 210.83235,182.28196 c -0.73886,1.40544 -4.24743,1.01516 -5.65287,0.27631 -1.40544,-0.73886 -1.94581,-2.47715 -1.20696,-3.88259 0.73886,-1.40544 4.24743,-1.01516 5.65287,-0.27631 1.40544,0.73886 1.94581,2.47715 1.20696,3.88259 z" id="path2953" sodipodi:nodetypes="csssc"/>
      <path id="path2955" d="m 213.02941,176.39896 c 1.19231,1.13145 1.90625,2.6161 1.90625,4.25 0,1.6339 -0.71394,3.11855 -1.90625,4.25 l 9.84375,0 c -1.19948,-1.13145 -1.9375,-2.6161 -1.9375,-4.25 0,-1.6339 0.73802,-3.11855 1.9375,-4.25 l -9.84375,0 z" style="fill:#555753;fill-opacity:1;stroke:none"/>
    </g>
    <g transform="matrix(-0.04587124,0.99894736,-0.99894736,-0.04587124,554.47323,132.48338)" id="g2957" inkscape:transform-center-x="2.8507743" inkscape:transform-center-y="2.0305453">
      <rect style="fill:#888a85;fill-opacity:1;stroke:none" id="rect2959" width="31.123922" height="8.5" x="202.18735" y="176.33865" ry="4.25"/>
      <path style="color:#000000;fill:#382509;fill-opacity:1;fill-rule:evenodd;stroke:#000000;stroke-width:1px;stroke-linecap:butt;stroke-linejoin:miter;stroke-miterlimit:4;stroke-opacity:1;stroke-dashoffset:0;marker:none;visibility:visible;display:inline;overflow:visible;enable-background:accumulate" d="m 231.2532,180.56721 c 0,1.58782 -3.28718,2.875 -4.875,2.875 -1.58782,0 -2.875,-1.28718 -2.875,-2.875 0,-1.58782 3.28718,-2.875 4.875,-2.875 1.58782,0 2.875,1.28718 2.875,2.875 z" id="path2961" sodipodi:nodetypes="csssc"/>
      <path sodipodi:nodetypes="csssc" id="path2963" d="m 210.83235,182.28196 c -0.73886,1.40544 -4.24743,1.01516 -5.65287,0.27631 -1.40544,-0.73886 -1.94581,-2.47715 -1.20696,-3.88259 0.73886,-1.40544 4.24743,-1.01516 5.65287,-0.27631 1.40544,0.73886 1.94581,2.47715 1.20696,3.88259 z" style="color:#000000;fill:#382509;fill-opacity:1;fill-rule:evenodd;stroke:#000000;stroke-width:1px;stroke-linecap:butt;stroke-linejoin:miter;stroke-miterlimit:4;stroke-opacity:1;stroke-dashoffset:0;marker:none;visibility:visible;display:inline;overflow:visible;enable-background:accumulate"/>
      <path style="fill:#555753;fill-opacity:1;stroke:none" d="m 213.02941,176.39896 c 1.19231,1.13145 1.90625,2.6161 1.90625,4.25 0,1.6339 -0.71394,3.11855 -1.90625,4.25 l 9.84375,0 c -1.19948,-1.13145 -1.9375,-2.6161 -1.9375,-4.25 0,-1.6339 0.73802,-3.11855 1.9375,-4.25 l -9.84375,0 z" id="path2965"/>
    </g>
    <g inkscape:transform-center-y="-1.1561735" inkscape:transform-center-x="3.3035282" id="g2967" transform="matrix(-0.84226151,0.53906915,-0.53906915,-0.84226151,634.48562,392.34576)">
      <rect ry="4.25" y="176.33865" x="202.18735" height="8.5" width="31.123922" id="rect2969" style="fill:#888a85;fill-opacity:1;stroke:none"/>
      <path sodipodi:nodetypes="csssc" id="path2971" d="m 231.2532,180.56721 c 0,1.58782 -3.28718,2.875 -4.875,2.875 -1.58782,0 -2.875,-1.28718 -2.875,-2.875 0,-1.58782 3.28718,-2.875 4.875,-2.875 1.58782,0 2.875,1.28718 2.875,2.875 z" style="color:#000000;fill:#382509;fill-opacity:1;fill-rule:evenodd;stroke:#000000;stroke-width:1px;stroke-linecap:butt;stroke-linejoin:miter;stroke-miterlimit:4;stroke-opacity:1;stroke-dashoffset:0;marker:none;visibility:visible;display:inline;overflow:visible;enable-background:accumulate"/>
      <path style="color:#000000;fill:#382509;fill-opacity:1;fill-rule:evenodd;stroke:#000000;stroke-width:1px;stroke-linecap:butt;stroke-linejoin:miter;stroke-miterlimit:4;stroke-opacity:1;stroke-dashoffset:0;marker:none;visibility:visible;display:inline;overflow:visible;enable-background:accumulate" d="m 210.83235,182.28196 c -0.73886,1.40544 -4.24743,1.01516 -5.65287,0.27631 -1.40544,-0.73886 -1.94581,-2.47715 -1.20696,-3.88259 0.73886,-1.40544 4.24743,-1.01516 5.65287,-0.27631 1.40544,0.73886 1.94581,2.47715 1.20696,3.88259 z" id="path2973" sodipodi:nodetypes="csssc"/>
      <path id="path2975" d="m 213.02941,176.39896 c 1.19231,1.13145 1.90625,2.6161 1.90625,4.25 0,1.6339 -0.71394,3.11855 -1.90625,4.25 l 9.84375,0 c -1.19948,-1.13145 -1.9375,-2.6161 -1.9375,-4.25 0,-1.6339 0.73802,-3.11855 1.9375,-4.25 l -9.84375,0 z" style="fill:#555753;fill-opacity:1;stroke:none"/>
    </g>
    <g transform="matrix(-0.69242845,0.72148655,-0.72148655,-0.69242845,618.0061,339.45443)" id="g2977" inkscape:transform-center-x="3.4825056" inkscape:transform-center-y="-0.34957021">
      <rect style="fill:#888a85;fill-opacity:1;stroke:none" id="rect2979" width="31.123922" height="8.5" x="202.18735" y="176.33865" ry="4.25"/>
      <path style="color:#000000;fill:#382509;fill-opacity:1;fill-rule:evenodd;stroke:#000000;stroke-width:1px;stroke-linecap:butt;stroke-linejoin:miter;stroke-miterlimit:4;stroke-opacity:1;stroke-dashoffset:0;marker:none;visibility:visible;display:inline;overflow:visible;enable-background:accumulate" d="m 231.2532,180.56721 c 0,1.58782 -3.28718,2.875 -4.875,2.875 -1.58782,0 -2.875,-1.28718 -2.875,-2.875 0,-1.58782 3.28718,-2.875 4.875,-2.875 1.58782,0 2.875,1.28718 2.875,2.875 z" id="path2981" sodipodi:nodetypes="csssc"/>
      <path sodipodi:nodetypes="csssc" id="path2983" d="m 210.83235,182.28196 c -0.73886,1.40544 -4.24743,1.01516 -5.65287,0.27631 -1.40544,-0.73886 -1.94581,-2.47715 -1.20696,-3.88259 0.73886,-1.40544 4.24743,-1.01516 5.65287,-0.27631 1.40544,0.73886 1.94581,2.47715 1.20696,3.88259 z" style="color:#000000;fill:#382509;fill-opacity:1;fill-rule:evenodd;stroke:#000000;stroke-width:1px;stroke-linecap:butt;stroke-linejoin:miter;stroke-miterlimit:4;stroke-opacity:1;stroke-dashoffset:0;marker:none;visibility:visible;display:inline;overflow:visible;enable-background:accumulate"/>
      <path style="fill:#555753;fill-opacity:1;stroke:none" d="m 213.02941,176.39896 c 1.19231,1.13145 1.90625,2.6161 1.90625,4.25 0,1.6339 -0.71394,3.11855 -1.90625,4.25 l 9.84375,0 c -1.19948,-1.13145 -1.9375,-2.6161 -1.9375,-4.25 0,-1.6339 0.73802,-3.11855 1.9375,-4.25 l -9.84375,0 z" id="path2985"/>
    </g>
    <g inkscape:transform-center-y="-1.279083" inkscape:transform-center-x="3.2579162" id="g2987" transform="matrix(-0.86185922,0.5071476,-0.5071476,-0.86185922,598.03217,430.64359)">
      <rect ry="4.25" y="176.33865" x="202.18735" height="8.5" width="31.123922" id="rect2989" style="fill:#888a85;fill-opacity:1;stroke:none"/>
      <path sodipodi:nodetypes="csssc" id="path2991" d="m 231.2532,180.56721 c 0,1.58782 -3.28718,2.875 -4.875,2.875 -1.58782,0 -2.875,-1.28718 -2.875,-2.875 0,-1.58782 3.28718,-2.875 4.875,-2.875 1.58782,0 2.875,1.28718 2.875,2.875 z" style="color:#000000;fill:#382509;fill-opacity:1;fill-rule:evenodd;stroke:#000000;stroke-width:1px;stroke-linecap:butt;stroke-linejoin:miter;stroke-miterlimit:4;stroke-opacity:1;stroke-dashoffset:0;marker:none;visibility:visible;display:inline;overflow:visible;enable-background:accumulate"/>
      <path style="color:#000000;fill:#382509;fill-opacity:1;fill-rule:evenodd;stroke:#000000;stroke-width:1px;stroke-linecap:butt;stroke-linejoin:miter;stroke-miterlimit:4;stroke-opacity:1;stroke-dashoffset:0;marker:none;visibility:visible;display:inline;overflow:visible;enable-background:accumulate" d="m 210.83235,182.28196 c -0.73886,1.40544 -4.24743,1.01516 -5.65287,0.27631 -1.40544,-0.73886 -1.94581,-2.47715 -1.20696,-3.88259 0.73886,-1.40544 4.24743,-1.01516 5.65287,-0.27631 1.40544,0.73886 1.94581,2.47715 1.20696,3.88259 z" id="path2993" sodipodi:nodetypes="csssc"/>
      <path id="path2995" d="m 213.02941,176.39896 c 1.19231,1.13145 1.90625,2.6161 1.90625,4.25 0,1.6339 -0.71394,3.11855 -1.90625,4.25 l 9.84375,0 c -1.19948,-1.13145 -1.9375,-2.6161 -1.9375,-4.25 0,-1.6339 0.73802,-3.11855 1.9375,-4.25 l -9.84375,0 z" style="fill:#555753;fill-opacity:1;stroke:none"/>
    </g>
    <g transform="matrix(-0.9999979,0.00204943,-0.00204943,-0.9999979,510.4127,571.52815)" id="g2997" inkscape:transform-center-x="2.1648198" inkscape:transform-center-y="-2.7735921">
      <rect style="fill:#888a85;fill-opacity:1;stroke:none" id="rect2999" width="31.123922" height="8.5" x="202.18735" y="176.33865" ry="4.25"/>
      <path style="color:#000000;fill:#382509;fill-opacity:1;fill-rule:evenodd;stroke:#000000;stroke-width:1px;stroke-linecap:butt;stroke-linejoin:miter;stroke-miterlimit:4;stroke-opacity:1;stroke-dashoffset:0;marker:none;visibility:visible;display:inline;overflow:visible;enable-background:accumulate" d="m 231.2532,180.56721 c 0,1.58782 -3.28718,2.875 -4.875,2.875 -1.58782,0 -2.875,-1.28718 -2.875,-2.875 0,-1.58782 3.28718,-2.875 4.875,-2.875 1.58782,0 2.875,1.28718 2.875,2.875 z" id="path3001" sodipodi:nodetypes="csssc"/>
      <path sodipodi:nodetypes="csssc" id="path3003" d="m 210.83235,182.28196 c -0.73886,1.40544 -4.24743,1.01516 -5.65287,0.27631 -1.40544,-0.73886 -1.94581,-2.47715 -1.20696,-3.88259 0.73886,-1.40544 4.24743,-1.01516 5.65287,-0.27631 1.40544,0.73886 1.94581,2.47715 1.20696,3.88259 z" style="color:#000000;fill:#382509;fill-opacity:1;fill-rule:evenodd;stroke:#000000;stroke-width:1px;stroke-linecap:butt;stroke-linejoin:miter;stroke-miterlimit:4;stroke-opacity:1;stroke-dashoffset:0;marker:none;visibility:visible;display:inline;overflow:visible;enable-background:accumulate"/>
      <path style="fill:#555753;fill-opacity:1;stroke:none" d="m 213.02941,176.39896 c 1.19231,1.13145 1.90625,2.6161 1.90625,4.25 0,1.6339 -0.71394,3.11855 -1.90625,4.25 l 9.84375,0 c -1.19948,-1.13145 -1.9375,-2.6161 -1.9375,-4.25 0,-1.6339 0.73802,-3.11855 1.9375,-4.25 l -9.84375,0 z" id="path3005"/>
    </g>
    <g inkscape:transform-center-y="-2.492015" inkscape:transform-center-x="2.4576229" id="g3007" transform="matrix(-0.99354952,0.11339908,-0.11339908,-0.99354952,507.82425,546.37552)">
      <rect ry="4.25" y="176.33865" x="202.18735" height="8.5" width="31.123922" id="rect3009" style="fill:#888a85;fill-opacity:1;stroke:none"/>
      <path sodipodi:nodetypes="csssc" id="path3011" d="m 231.2532,180.56721 c 0,1.58782 -3.28718,2.875 -4.875,2.875 -1.58782,0 -2.875,-1.28718 -2.875,-2.875 0,-1.58782 3.28718,-2.875 4.875,-2.875 1.58782,0 2.875,1.28718 2.875,2.875 z" style="color:#000000;fill:#382509;fill-opacity:1;fill-rule:evenodd;stroke:#000000;stroke-width:1px;stroke-linecap:butt;stroke-linejoin:miter;stroke-miterlimit:4;stroke-opacity:1;stroke-dashoffset:0;marker:none;visibility:visible;display:inline;overflow:visible;enable-background:accumulate"/>
      <path style="color:#000000;fill:#382509;fill-opacity:1;fill-rule:evenodd;stroke:#000000;stroke-width:1px;stroke-linecap:butt;stroke-linejoin:miter;stroke-miterlimit:4;stroke-opacity:1;stroke-dashoffset:0;marker:none;visibility:visible;display:inline;overflow:visible;enable-background:accumulate" d="m 210.83235,182.28196 c -0.73886,1.40544 -4.24743,1.01516 -5.65287,0.27631 -1.40544,-0.73886 -1.94581,-2.47715 -1.20696,-3.88259 0.73886,-1.40544 4.24743,-1.01516 5.65287,-0.27631 1.40544,0.73886 1.94581,2.47715 1.20696,3.88259 z" id="path3013" sodipodi:nodetypes="csssc"/>
      <path id="path3015" d="m 213.02941,176.39896 c 1.19231,1.13145 1.90625,2.6161 1.90625,4.25 0,1.6339 -0.71394,3.11855 -1.90625,4.25 l 9.84375,0 c -1.19948,-1.13145 -1.9375,-2.6161 -1.9375,-4.25 0,-1.6339 0.73802,-3.11855 1.9375,-4.25 l -9.84375,0 z" style="fill:#555753;fill-opacity:1;stroke:none"/>
    </g>
    <g transform="matrix(-0.9999979,0.00204943,-0.00204943,-0.9999979,468.9127,571.52815)" id="g3017" inkscape:transform-center-x="2.1648198" inkscape:transform-center-y="-2.7735921">
      <rect style="fill:#888a85;fill-opacity:1;stroke:none" id="rect3019" width="31.123922" height="8.5" x="202.18735" y="176.33865" ry="4.25"/>
      <path style="color:#000000;fill:#382509;fill-opacity:1;fill-rule:evenodd;stroke:#000000;stroke-width:1px;stroke-linecap:butt;stroke-linejoin:miter;stroke-miterlimit:4;stroke-opacity:1;stroke-dashoffset:0;marker:none;visibility:visible;display:inline;overflow:visible;enable-background:accumulate" d="m 231.2532,180.56721 c 0,1.58782 -3.28718,2.875 -4.875,2.875 -1.58782,0 -2.875,-1.28718 -2.875,-2.875 0,-1.58782 3.28718,-2.875 4.875,-2.875 1.58782,0 2.875,1.28718 2.875,2.875 z" id="path3021" sodipodi:nodetypes="csssc"/>
      <path sodipodi:nodetypes="csssc" id="path3023" d="m 210.83235,182.28196 c -0.73886,1.40544 -4.24743,1.01516 -5.65287,0.27631 -1.40544,-0.73886 -1.94581,-2.47715 -1.20696,-3.88259 0.73886,-1.40544 4.24743,-1.01516 5.65287,-0.27631 1.40544,0.73886 1.94581,2.47715 1.20696,3.88259 z" style="color:#000000;fill:#382509;fill-opacity:1;fill-rule:evenodd;stroke:#000000;stroke-width:1px;stroke-linecap:butt;stroke-linejoin:miter;stroke-miterlimit:4;stroke-opacity:1;stroke-dashoffset:0;marker:none;visibility:visible;display:inline;overflow:visible;enable-background:accumulate"/>
      <path style="fill:#555753;fill-opacity:1;stroke:none" d="m 213.02941,176.39896 c 1.19231,1.13145 1.90625,2.6161 1.90625,4.25 0,1.6339 -0.71394,3.11855 -1.90625,4.25 l 9.84375,0 c -1.19948,-1.13145 -1.9375,-2.6161 -1.9375,-4.25 0,-1.6339 0.73802,-3.11855 1.9375,-4.25 l -9.84375,0 z" id="path3025"/>
    </g>
    <g inkscape:transform-center-y="-2.7735921" inkscape:transform-center-x="2.1648198" id="g3027" transform="matrix(-0.9999979,0.00204943,-0.00204943,-0.9999979,447.9127,571.52815)">
      <rect ry="4.25" y="176.33865" x="202.18735" height="8.5" width="31.123922" id="rect3029" style="fill:#888a85;fill-opacity:1;stroke:none"/>
      <path sodipodi:nodetypes="csssc" id="path3031" d="m 231.2532,180.56721 c 0,1.58782 -3.28718,2.875 -4.875,2.875 -1.58782,0 -2.875,-1.28718 -2.875,-2.875 0,-1.58782 3.28718,-2.875 4.875,-2.875 1.58782,0 2.875,1.28718 2.875,2.875 z" style="color:#000000;fill:#382509;fill-opacity:1;fill-rule:evenodd;stroke:#000000;stroke-width:1px;stroke-linecap:butt;stroke-linejoin:miter;stroke-miterlimit:4;stroke-opacity:1;stroke-dashoffset:0;marker:none;visibility:visible;display:inline;overflow:visible;enable-background:accumulate"/>
      <path style="color:#000000;fill:#382509;fill-opacity:1;fill-rule:evenodd;stroke:#000000;stroke-width:1px;stroke-linecap:butt;stroke-linejoin:miter;stroke-miterlimit:4;stroke-opacity:1;stroke-dashoffset:0;marker:none;visibility:visible;display:inline;overflow:visible;enable-background:accumulate" d="m 210.83235,182.28196 c -0.73886,1.40544 -4.24743,1.01516 -5.65287,0.27631 -1.40544,-0.73886 -1.94581,-2.47715 -1.20696,-3.88259 0.73886,-1.40544 4.24743,-1.01516 5.65287,-0.27631 1.40544,0.73886 1.94581,2.47715 1.20696,3.88259 z" id="path3033" sodipodi:nodetypes="csssc"/>
      <path id="path3035" d="m 213.02941,176.39896 c 1.19231,1.13145 1.90625,2.6161 1.90625,4.25 0,1.6339 -0.71394,3.11855 -1.90625,4.25 l 9.84375,0 c -1.19948,-1.13145 -1.9375,-2.6161 -1.9375,-4.25 0,-1.6339 0.73802,-3.11855 1.9375,-4.25 l -9.84375,0 z" style="fill:#555753;fill-opacity:1;stroke:none"/>
    </g>
    <g transform="matrix(-0.9958278,-0.0912524,0.0912524,-0.9958278,408.92143,590.90152)" id="g3037" inkscape:transform-center-x="1.8988016" inkscape:transform-center-y="-2.9401648">
      <rect style="fill:#888a85;fill-opacity:1;stroke:none" id="rect3039" width="31.123922" height="8.5" x="202.18735" y="176.33865" ry="4.25"/>
      <path style="color:#000000;fill:#382509;fill-opacity:1;fill-rule:evenodd;stroke:#000000;stroke-width:1px;stroke-linecap:butt;stroke-linejoin:miter;stroke-miterlimit:4;stroke-opacity:1;stroke-dashoffset:0;marker:none;visibility:visible;display:inline;overflow:visible;enable-background:accumulate" d="m 231.2532,180.56721 c 0,1.58782 -3.28718,2.875 -4.875,2.875 -1.58782,0 -2.875,-1.28718 -2.875,-2.875 0,-1.58782 3.28718,-2.875 4.875,-2.875 1.58782,0 2.875,1.28718 2.875,2.875 z" id="path3041" sodipodi:nodetypes="csssc"/>
      <path sodipodi:nodetypes="csssc" id="path3043" d="m 210.83235,182.28196 c -0.73886,1.40544 -4.24743,1.01516 -5.65287,0.27631 -1.40544,-0.73886 -1.94581,-2.47715 -1.20696,-3.88259 0.73886,-1.40544 4.24743,-1.01516 5.65287,-0.27631 1.40544,0.73886 1.94581,2.47715 1.20696,3.88259 z" style="color:#000000;fill:#382509;fill-opacity:1;fill-rule:evenodd;stroke:#000000;stroke-width:1px;stroke-linecap:butt;stroke-linejoin:miter;stroke-miterlimit:4;stroke-opacity:1;stroke-dashoffset:0;marker:none;visibility:visible;display:inline;overflow:visible;enable-background:accumulate"/>
      <path style="fill:#555753;fill-opacity:1;stroke:none" d="m 213.02941,176.39896 c 1.19231,1.13145 1.90625,2.6161 1.90625,4.25 0,1.6339 -0.71394,3.11855 -1.90625,4.25 l 9.84375,0 c -1.19948,-1.13145 -1.9375,-2.6161 -1.9375,-4.25 0,-1.6339 0.73802,-3.11855 1.9375,-4.25 l -9.84375,0 z" id="path3045"/>
    </g>
    <g inkscape:transform-center-y="-2.7735921" inkscape:transform-center-x="2.1648198" id="g3047" transform="matrix(-0.9999979,0.00204943,-0.00204943,-0.9999979,403.4127,571.52815)">
      <rect ry="4.25" y="176.33865" x="202.18735" height="8.5" width="31.123922" id="rect3049" style="fill:#888a85;fill-opacity:1;stroke:none"/>
      <path sodipodi:nodetypes="csssc" id="path3051" d="m 231.2532,180.56721 c 0,1.58782 -3.28718,2.875 -4.875,2.875 -1.58782,0 -2.875,-1.28718 -2.875,-2.875 0,-1.58782 3.28718,-2.875 4.875,-2.875 1.58782,0 2.875,1.28718 2.875,2.875 z" style="color:#000000;fill:#382509;fill-opacity:1;fill-rule:evenodd;stroke:#000000;stroke-width:1px;stroke-linecap:butt;stroke-linejoin:miter;stroke-miterlimit:4;stroke-opacity:1;stroke-dashoffset:0;marker:none;visibility:visible;display:inline;overflow:visible;enable-background:accumulate"/>
      <path style="color:#000000;fill:#382509;fill-opacity:1;fill-rule:evenodd;stroke:#000000;stroke-width:1px;stroke-linecap:butt;stroke-linejoin:miter;stroke-miterlimit:4;stroke-opacity:1;stroke-dashoffset:0;marker:none;visibility:visible;display:inline;overflow:visible;enable-background:accumulate" d="m 210.83235,182.28196 c -0.73886,1.40544 -4.24743,1.01516 -5.65287,0.27631 -1.40544,-0.73886 -1.94581,-2.47715 -1.20696,-3.88259 0.73886,-1.40544 4.24743,-1.01516 5.65287,-0.27631 1.40544,0.73886 1.94581,2.47715 1.20696,3.88259 z" id="path3053" sodipodi:nodetypes="csssc"/>
      <path id="path3055" d="m 213.02941,176.39896 c 1.19231,1.13145 1.90625,2.6161 1.90625,4.25 0,1.6339 -0.71394,3.11855 -1.90625,4.25 l 9.84375,0 c -1.19948,-1.13145 -1.9375,-2.6161 -1.9375,-4.25 0,-1.6339 0.73802,-3.11855 1.9375,-4.25 l -9.84375,0 z" style="fill:#555753;fill-opacity:1;stroke:none"/>
    </g>
    <g transform="matrix(-0.98222328,-0.18771634,0.18771634,-0.98222328,343.83386,607.77885)" id="g3057" inkscape:transform-center-x="-3.3962963" inkscape:transform-center-y="6.3748553">
      <rect style="fill:#888a85;fill-opacity:1;stroke:none" id="rect3059" width="31.123922" height="8.5" x="202.18735" y="176.33865" ry="4.25"/>
      <path style="color:#000000;fill:#382509;fill-opacity:1;fill-rule:evenodd;stroke:#000000;stroke-width:1px;stroke-linecap:butt;stroke-linejoin:miter;stroke-miterlimit:4;stroke-opacity:1;stroke-dashoffset:0;marker:none;visibility:visible;display:inline;overflow:visible;enable-background:accumulate" d="m 231.2532,180.56721 c 0,1.58782 -3.28718,2.875 -4.875,2.875 -1.58782,0 -2.875,-1.28718 -2.875,-2.875 0,-1.58782 3.28718,-2.875 4.875,-2.875 1.58782,0 2.875,1.28718 2.875,2.875 z" id="path3061" sodipodi:nodetypes="csssc"/>
      <path sodipodi:nodetypes="csssc" id="path3063" d="m 210.83235,182.28196 c -0.73886,1.40544 -4.24743,1.01516 -5.65287,0.27631 -1.40544,-0.73886 -1.94581,-2.47715 -1.20696,-3.88259 0.73886,-1.40544 4.24743,-1.01516 5.65287,-0.27631 1.40544,0.73886 1.94581,2.47715 1.20696,3.88259 z" style="color:#000000;fill:#382509;fill-opacity:1;fill-rule:evenodd;stroke:#000000;stroke-width:1px;stroke-linecap:butt;stroke-linejoin:miter;stroke-miterlimit:4;stroke-opacity:1;stroke-dashoffset:0;marker:none;visibility:visible;display:inline;overflow:visible;enable-background:accumulate"/>
      <path style="fill:#555753;fill-opacity:1;stroke:none" d="m 213.02941,176.39896 c 1.19231,1.13145 1.90625,2.6161 1.90625,4.25 0,1.6339 -0.71394,3.11855 -1.90625,4.25 l 9.84375,0 c -1.19948,-1.13145 -1.9375,-2.6161 -1.9375,-4.25 0,-1.6339 0.73802,-3.11855 1.9375,-4.25 l -9.84375,0 z" id="path3065"/>
    </g>
    <g inkscape:transform-center-y="6.3748553" inkscape:transform-center-x="-3.3962963" id="g3067" transform="matrix(-0.98222328,-0.18771634,0.18771634,-0.98222328,321.33386,602.77885)">
      <rect ry="4.25" y="176.33865" x="202.18735" height="8.5" width="31.123922" id="rect3069" style="fill:#888a85;fill-opacity:1;stroke:none"/>
      <path sodipodi:nodetypes="csssc" id="path3071" d="m 231.2532,180.56721 c 0,1.58782 -3.28718,2.875 -4.875,2.875 -1.58782,0 -2.875,-1.28718 -2.875,-2.875 0,-1.58782 3.28718,-2.875 4.875,-2.875 1.58782,0 2.875,1.28718 2.875,2.875 z" style="color:#000000;fill:#382509;fill-opacity:1;fill-rule:evenodd;stroke:#000000;stroke-width:1px;stroke-linecap:butt;stroke-linejoin:miter;stroke-miterlimit:4;stroke-opacity:1;stroke-dashoffset:0;marker:none;visibility:visible;display:inline;overflow:visible;enable-background:accumulate"/>
      <path style="color:#000000;fill:#382509;fill-opacity:1;fill-rule:evenodd;stroke:#000000;stroke-width:1px;stroke-linecap:butt;stroke-linejoin:miter;stroke-miterlimit:4;stroke-opacity:1;stroke-dashoffset:0;marker:none;visibility:visible;display:inline;overflow:visible;enable-background:accumulate" d="m 210.83235,182.28196 c -0.73886,1.40544 -4.24743,1.01516 -5.65287,0.27631 -1.40544,-0.73886 -1.94581,-2.47715 -1.20696,-3.88259 0.73886,-1.40544 4.24743,-1.01516 5.65287,-0.27631 1.40544,0.73886 1.94581,2.47715 1.20696,3.88259 z" id="path3073" sodipodi:nodetypes="csssc"/>
      <path id="path3075" d="m 213.02941,176.39896 c 1.19231,1.13145 1.90625,2.6161 1.90625,4.25 0,1.6339 -0.71394,3.11855 -1.90625,4.25 l 9.84375,0 c -1.19948,-1.13145 -1.9375,-2.6161 -1.9375,-4.25 0,-1.6339 0.73802,-3.11855 1.9375,-4.25 l -9.84375,0 z" style="fill:#555753;fill-opacity:1;stroke:none"/>
    </g>
    <g transform="matrix(-0.79365647,-0.60836617,0.60836617,-0.79365647,185.58856,650.66817)" id="g3077" inkscape:transform-center-x="-0.17587522" inkscape:transform-center-y="7.220992">
      <rect style="fill:#888a85;fill-opacity:1;stroke:none" id="rect3079" width="31.123922" height="8.5" x="202.18735" y="176.33865" ry="4.25"/>
      <path style="color:#000000;fill:#382509;fill-opacity:1;fill-rule:evenodd;stroke:#000000;stroke-width:1px;stroke-linecap:butt;stroke-linejoin:miter;stroke-miterlimit:4;stroke-opacity:1;stroke-dashoffset:0;marker:none;visibility:visible;display:inline;overflow:visible;enable-background:accumulate" d="m 231.2532,180.56721 c 0,1.58782 -3.28718,2.875 -4.875,2.875 -1.58782,0 -2.875,-1.28718 -2.875,-2.875 0,-1.58782 3.28718,-2.875 4.875,-2.875 1.58782,0 2.875,1.28718 2.875,2.875 z" id="path3081" sodipodi:nodetypes="csssc"/>
      <path sodipodi:nodetypes="csssc" id="path3083" d="m 210.83235,182.28196 c -0.73886,1.40544 -4.24743,1.01516 -5.65287,0.27631 -1.40544,-0.73886 -1.94581,-2.47715 -1.20696,-3.88259 0.73886,-1.40544 4.24743,-1.01516 5.65287,-0.27631 1.40544,0.73886 1.94581,2.47715 1.20696,3.88259 z" style="color:#000000;fill:#382509;fill-opacity:1;fill-rule:evenodd;stroke:#000000;stroke-width:1px;stroke-linecap:butt;stroke-linejoin:miter;stroke-miterlimit:4;stroke-opacity:1;stroke-dashoffset:0;marker:none;visibility:visible;display:inline;overflow:visible;enable-background:accumulate"/>
      <path style="fill:#555753;fill-opacity:1;stroke:none" d="m 213.02941,176.39896 c 1.19231,1.13145 1.90625,2.6161 1.90625,4.25 0,1.6339 -0.71394,3.11855 -1.90625,4.25 l 9.84375,0 c -1.19948,-1.13145 -1.9375,-2.6161 -1.9375,-4.25 0,-1.6339 0.73802,-3.11855 1.9375,-4.25 l -9.84375,0 z" id="path3085"/>
    </g>
    <g inkscape:transform-center-y="5.0160656" inkscape:transform-center-x="5.1973773" id="g3087" transform="matrix(-0.08917706,-0.99601578,0.99601578,-0.08917706,-48.189718,588.15269)">
      <rect ry="4.25" y="176.33865" x="202.18735" height="8.5" width="31.123922" id="rect3089" style="fill:#888a85;fill-opacity:1;stroke:none"/>
      <path sodipodi:nodetypes="csssc" id="path3091" d="m 231.2532,180.56721 c 0,1.58782 -3.28718,2.875 -4.875,2.875 -1.58782,0 -2.875,-1.28718 -2.875,-2.875 0,-1.58782 3.28718,-2.875 4.875,-2.875 1.58782,0 2.875,1.28718 2.875,2.875 z" style="color:#000000;fill:#382509;fill-opacity:1;fill-rule:evenodd;stroke:#000000;stroke-width:1px;stroke-linecap:butt;stroke-linejoin:miter;stroke-miterlimit:4;stroke-opacity:1;stroke-dashoffset:0;marker:none;visibility:visible;display:inline;overflow:visible;enable-background:accumulate"/>
      <path style="color:#000000;fill:#382509;fill-opacity:1;fill-rule:evenodd;stroke:#000000;stroke-width:1px;stroke-linecap:butt;stroke-linejoin:miter;stroke-miterlimit:4;stroke-opacity:1;stroke-dashoffset:0;marker:none;visibility:visible;display:inline;overflow:visible;enable-background:accumulate" d="m 210.83235,182.28196 c -0.73886,1.40544 -4.24743,1.01516 -5.65287,0.27631 -1.40544,-0.73886 -1.94581,-2.47715 -1.20696,-3.88259 0.73886,-1.40544 4.24743,-1.01516 5.65287,-0.27631 1.40544,0.73886 1.94581,2.47715 1.20696,3.88259 z" id="path3093" sodipodi:nodetypes="csssc"/>
      <path id="path3095" d="m 213.02941,176.39896 c 1.19231,1.13145 1.90625,2.6161 1.90625,4.25 0,1.6339 -0.71394,3.11855 -1.90625,4.25 l 9.84375,0 c -1.19948,-1.13145 -1.9375,-2.6161 -1.9375,-4.25 0,-1.6339 0.73802,-3.11855 1.9375,-4.25 l -9.84375,0 z" style="fill:#555753;fill-opacity:1;stroke:none"/>
    </g>
    <g transform="matrix(0.82785516,-0.5609419,0.5609419,0.82785516,-160.51313,310.68065)" id="g3097" inkscape:transform-center-x="6.9070636" inkscape:transform-center-y="-2.113324">
      <rect style="fill:#888a85;fill-opacity:1;stroke:none" id="rect3099" width="31.123922" height="8.5" x="202.18735" y="176.33865" ry="4.25"/>
      <path style="color:#000000;fill:#382509;fill-opacity:1;fill-rule:evenodd;stroke:#000000;stroke-width:1px;stroke-linecap:butt;stroke-linejoin:miter;stroke-miterlimit:4;stroke-opacity:1;stroke-dashoffset:0;marker:none;visibility:visible;display:inline;overflow:visible;enable-background:accumulate" d="m 231.2532,180.56721 c 0,1.58782 -3.28718,2.875 -4.875,2.875 -1.58782,0 -2.875,-1.28718 -2.875,-2.875 0,-1.58782 3.28718,-2.875 4.875,-2.875 1.58782,0 2.875,1.28718 2.875,2.875 z" id="path3101" sodipodi:nodetypes="csssc"/>
      <path sodipodi:nodetypes="csssc" id="path3103" d="m 210.83235,182.28196 c -0.73886,1.40544 -4.24743,1.01516 -5.65287,0.27631 -1.40544,-0.73886 -1.94581,-2.47715 -1.20696,-3.88259 0.73886,-1.40544 4.24743,-1.01516 5.65287,-0.27631 1.40544,0.73886 1.94581,2.47715 1.20696,3.88259 z" style="color:#000000;fill:#382509;fill-opacity:1;fill-rule:evenodd;stroke:#000000;stroke-width:1px;stroke-linecap:butt;stroke-linejoin:miter;stroke-miterlimit:4;stroke-opacity:1;stroke-dashoffset:0;marker:none;visibility:visible;display:inline;overflow:visible;enable-background:accumulate"/>
      <path style="fill:#555753;fill-opacity:1;stroke:none" d="m 213.02941,176.39896 c 1.19231,1.13145 1.90625,2.6161 1.90625,4.25 0,1.6339 -0.71394,3.11855 -1.90625,4.25 l 9.84375,0 c -1.19948,-1.13145 -1.9375,-2.6161 -1.9375,-4.25 0,-1.6339 0.73802,-3.11855 1.9375,-4.25 l -9.84375,0 z" id="path3105"/>
    </g>
    <g inkscape:transform-center-y="-6.2428802" inkscape:transform-center-x="3.6332001" id="g3107" transform="matrix(0.98857717,0.15071548,-0.15071548,0.98857717,-44.219125,121.56362)">
      <rect ry="4.25" y="176.33865" x="202.18735" height="8.5" width="31.123922" id="rect3109" style="fill:#888a85;fill-opacity:1;stroke:none"/>
      <path sodipodi:nodetypes="csssc" id="path3111" d="m 231.2532,180.56721 c 0,1.58782 -3.28718,2.875 -4.875,2.875 -1.58782,0 -2.875,-1.28718 -2.875,-2.875 0,-1.58782 3.28718,-2.875 4.875,-2.875 1.58782,0 2.875,1.28718 2.875,2.875 z" style="color:#000000;fill:#382509;fill-opacity:1;fill-rule:evenodd;stroke:#000000;stroke-width:1px;stroke-linecap:butt;stroke-linejoin:miter;stroke-miterlimit:4;stroke-opacity:1;stroke-dashoffset:0;marker:none;visibility:visible;display:inline;overflow:visible;enable-background:accumulate"/>
      <path style="color:#000000;fill:#382509;fill-opacity:1;fill-rule:evenodd;stroke:#000000;stroke-width:1px;stroke-linecap:butt;stroke-linejoin:miter;stroke-miterlimit:4;stroke-opacity:1;stroke-dashoffset:0;marker:none;visibility:visible;display:inline;overflow:visible;enable-background:accumulate" d="m 210.83235,182.28196 c -0.73886,1.40544 -4.24743,1.01516 -5.65287,0.27631 -1.40544,-0.73886 -1.94581,-2.47715 -1.20696,-3.88259 0.73886,-1.40544 4.24743,-1.01516 5.65287,-0.27631 1.40544,0.73886 1.94581,2.47715 1.20696,3.88259 z" id="path3113" sodipodi:nodetypes="csssc"/>
      <path id="path3115" d="m 213.02941,176.39896 c 1.19231,1.13145 1.90625,2.6161 1.90625,4.25 0,1.6339 -0.71394,3.11855 -1.90625,4.25 l 9.84375,0 c -1.19948,-1.13145 -1.9375,-2.6161 -1.9375,-4.25 0,-1.6339 0.73802,-3.11855 1.9375,-4.25 l -9.84375,0 z" style="fill:#555753;fill-opacity:1;stroke:none"/>
    </g>
    <g transform="matrix(0.99904897,-0.04360199,0.04360199,0.99904897,-61.231184,164.8069)" id="g3117">
      <rect style="fill:#888a85;fill-opacity:1;stroke:none" id="rect3119" width="31.123922" height="8.5" x="202.18735" y="176.33865" ry="4.25"/>
      <path style="color:#000000;fill:#382509;fill-opacity:1;fill-rule:evenodd;stroke:#000000;stroke-width:1px;stroke-linecap:butt;stroke-linejoin:miter;stroke-miterlimit:4;stroke-opacity:1;stroke-dashoffset:0;marker:none;visibility:visible;display:inline;overflow:visible;enable-background:accumulate" d="m 231.2532,180.56721 c 0,1.58782 -3.28718,2.875 -4.875,2.875 -1.58782,0 -2.875,-1.28718 -2.875,-2.875 0,-1.58782 3.28718,-2.875 4.875,-2.875 1.58782,0 2.875,1.28718 2.875,2.875 z" id="path3121" sodipodi:nodetypes="csssc"/>
      <path sodipodi:nodetypes="csssc" id="path3123" d="m 210.83235,182.28196 c -0.73886,1.40544 -4.24743,1.01516 -5.65287,0.27631 -1.40544,-0.73886 -1.94581,-2.47715 -1.20696,-3.88259 0.73886,-1.40544 4.24743,-1.01516 5.65287,-0.27631 1.40544,0.73886 1.94581,2.47715 1.20696,3.88259 z" style="color:#000000;fill:#382509;fill-opacity:1;fill-rule:evenodd;stroke:#000000;stroke-width:1px;stroke-linecap:butt;stroke-linejoin:miter;stroke-miterlimit:4;stroke-opacity:1;stroke-dashoffset:0;marker:none;visibility:visible;display:inline;overflow:visible;enable-background:accumulate"/>
      <path style="fill:#555753;fill-opacity:1;stroke:none" d="m 213.02941,176.39896 c 1.19231,1.13145 1.90625,2.6161 1.90625,4.25 0,1.6339 -0.71394,3.11855 -1.90625,4.25 l 9.84375,0 c -1.19948,-1.13145 -1.9375,-2.6161 -1.9375,-4.25 0,-1.6339 0.73802,-3.11855 1.9375,-4.25 l -9.84375,0 z" id="path3125"/>
    </g>
    <g id="g3127" transform="matrix(0.99904897,-0.04360199,0.04360199,0.99904897,-40.731184,162.8069)">
      <rect ry="4.25" y="176.33865" x="202.18735" height="8.5" width="31.123922" id="rect3129" style="fill:#888a85;fill-opacity:1;stroke:none"/>
      <path sodipodi:nodetypes="csssc" id="path3131" d="m 231.2532,180.56721 c 0,1.58782 -3.28718,2.875 -4.875,2.875 -1.58782,0 -2.875,-1.28718 -2.875,-2.875 0,-1.58782 3.28718,-2.875 4.875,-2.875 1.58782,0 2.875,1.28718 2.875,2.875 z" style="color:#000000;fill:#382509;fill-opacity:1;fill-rule:evenodd;stroke:#000000;stroke-width:1px;stroke-linecap:butt;stroke-linejoin:miter;stroke-miterlimit:4;stroke-opacity:1;stroke-dashoffset:0;marker:none;visibility:visible;display:inline;overflow:visible;enable-background:accumulate"/>
      <path style="color:#000000;fill:#382509;fill-opacity:1;fill-rule:evenodd;stroke:#000000;stroke-width:1px;stroke-linecap:butt;stroke-linejoin:miter;stroke-miterlimit:4;stroke-opacity:1;stroke-dashoffset:0;marker:none;visibility:visible;display:inline;overflow:visible;enable-background:accumulate" d="m 210.83235,182.28196 c -0.73886,1.40544 -4.24743,1.01516 -5.65287,0.27631 -1.40544,-0.73886 -1.94581,-2.47715 -1.20696,-3.88259 0.73886,-1.40544 4.24743,-1.01516 5.65287,-0.27631 1.40544,0.73886 1.94581,2.47715 1.20696,3.88259 z" id="path3133" sodipodi:nodetypes="csssc"/>
      <path id="path3135" d="m 213.02941,176.39896 c 1.19231,1.13145 1.90625,2.6161 1.90625,4.25 0,1.6339 -0.71394,3.11855 -1.90625,4.25 l 9.84375,0 c -1.19948,-1.13145 -1.9375,-2.6161 -1.9375,-4.25 0,-1.6339 0.73802,-3.11855 1.9375,-4.25 l -9.84375,0 z" style="fill:#555753;fill-opacity:1;stroke:none"/>
    </g>
    <g transform="matrix(0.98459404,0.17485579,-0.17485579,0.98459404,20.867362,120.34827)" id="g3137">
      <rect style="fill:#888a85;fill-opacity:1;stroke:none" id="rect3139" width="31.123922" height="8.5" x="202.18735" y="176.33865" ry="4.25"/>
      <path style="color:#000000;fill:#382509;fill-opacity:1;fill-rule:evenodd;stroke:#000000;stroke-width:1px;stroke-linecap:butt;stroke-linejoin:miter;stroke-miterlimit:4;stroke-opacity:1;stroke-dashoffset:0;marker:none;visibility:visible;display:inline;overflow:visible;enable-background:accumulate" d="m 231.2532,180.56721 c 0,1.58782 -3.28718,2.875 -4.875,2.875 -1.58782,0 -2.875,-1.28718 -2.875,-2.875 0,-1.58782 3.28718,-2.875 4.875,-2.875 1.58782,0 2.875,1.28718 2.875,2.875 z" id="path3141" sodipodi:nodetypes="csssc"/>
      <path sodipodi:nodetypes="csssc" id="path3143" d="m 210.83235,182.28196 c -0.73886,1.40544 -4.24743,1.01516 -5.65287,0.27631 -1.40544,-0.73886 -1.94581,-2.47715 -1.20696,-3.88259 0.73886,-1.40544 4.24743,-1.01516 5.65287,-0.27631 1.40544,0.73886 1.94581,2.47715 1.20696,3.88259 z" style="color:#000000;fill:#382509;fill-opacity:1;fill-rule:evenodd;stroke:#000000;stroke-width:1px;stroke-linecap:butt;stroke-linejoin:miter;stroke-miterlimit:4;stroke-opacity:1;stroke-dashoffset:0;marker:none;visibility:visible;display:inline;overflow:visible;enable-background:accumulate"/>
      <path style="fill:#555753;fill-opacity:1;stroke:none" d="m 213.02941,176.39896 c 1.19231,1.13145 1.90625,2.6161 1.90625,4.25 0,1.6339 -0.71394,3.11855 -1.90625,4.25 l 9.84375,0 c -1.19948,-1.13145 -1.9375,-2.6161 -1.9375,-4.25 0,-1.6339 0.73802,-3.11855 1.9375,-4.25 l -9.84375,0 z" id="path3145"/>
    </g>
    <g id="g3147" transform="matrix(0.99231137,-0.12376641,0.12376641,0.99231137,-11.240861,184.47938)" inkscape:transform-center-y="-5.6507826">
      <rect ry="4.25" y="176.33865" x="202.18735" height="8.5" width="31.123922" id="rect3149" style="fill:#888a85;fill-opacity:1;stroke:none"/>
      <path sodipodi:nodetypes="csssc" id="path3151" d="m 231.2532,180.56721 c 0,1.58782 -3.28718,2.875 -4.875,2.875 -1.58782,0 -2.875,-1.28718 -2.875,-2.875 0,-1.58782 3.28718,-2.875 4.875,-2.875 1.58782,0 2.875,1.28718 2.875,2.875 z" style="color:#000000;fill:#382509;fill-opacity:1;fill-rule:evenodd;stroke:#000000;stroke-width:1px;stroke-linecap:butt;stroke-linejoin:miter;stroke-miterlimit:4;stroke-opacity:1;stroke-dashoffset:0;marker:none;visibility:visible;display:inline;overflow:visible;enable-background:accumulate"/>
      <path style="color:#000000;fill:#382509;fill-opacity:1;fill-rule:evenodd;stroke:#000000;stroke-width:1px;stroke-linecap:butt;stroke-linejoin:miter;stroke-miterlimit:4;stroke-opacity:1;stroke-dashoffset:0;marker:none;visibility:visible;display:inline;overflow:visible;enable-background:accumulate" d="m 210.83235,182.28196 c -0.73886,1.40544 -4.24743,1.01516 -5.65287,0.27631 -1.40544,-0.73886 -1.94581,-2.47715 -1.20696,-3.88259 0.73886,-1.40544 4.24743,-1.01516 5.65287,-0.27631 1.40544,0.73886 1.94581,2.47715 1.20696,3.88259 z" id="path3153" sodipodi:nodetypes="csssc"/>
      <path id="path3155" d="m 213.02941,176.39896 c 1.19231,1.13145 1.90625,2.6161 1.90625,4.25 0,1.6339 -0.71394,3.11855 -1.90625,4.25 l 9.84375,0 c -1.19948,-1.13145 -1.9375,-2.6161 -1.9375,-4.25 0,-1.6339 0.73802,-3.11855 1.9375,-4.25 l -9.84375,0 z" style="fill:#555753;fill-opacity:1;stroke:none"/>
    </g>
    <g id="g4001" transform="matrix(0.40832707,0.05405341,-0.05405341,0.40832707,276.30213,148.3214)">
      <path transform="matrix(1.4609518,0,0,1.4609518,-23.137019,-232.44005)" d="m 187.85715,462.00504 c 0,10.45396 -8.47461,18.92857 -18.92858,18.92857 C 158.47461,480.93361 150,472.459 150,462.00504 c 0,-10.45397 8.47461,-18.92858 18.92857,-18.92858 10.45397,0 18.92858,8.47461 18.92858,18.92858 z" sodipodi:ry="18.928572" sodipodi:rx="18.928572" sodipodi:cy="462.00504" sodipodi:cx="168.92857" id="path4003" style="fill:#444643;fill-opacity:1;stroke:none" sodipodi:type="arc"/>
      <path transform="translate(51.68734,231.23288)" d="m 166.75832,229.3641 c -0.75166,0.75166 -4.10717,1.65077 -5.13396,1.37564 -1.0268,-0.27513 -3.4832,-2.73153 -3.75833,-3.75832 -0.27512,-1.0268 0.62398,-4.38231 1.37565,-5.13397 0.75166,-0.75167 4.10717,-1.65077 5.13396,-1.37564 1.0268,0.27513 3.4832,2.73153 3.75833,3.75832 0.27512,1.0268 -0.62398,4.3823 -1.37565,5.13397 z" inkscape:randomized="0" inkscape:rounded="0.2" inkscape:flatsided="true" sodipodi:arg2="1.3089969" sodipodi:arg1="0.78539816" sodipodi:r2="4.6029882" sodipodi:r1="5.315073" sodipodi:cy="225.60577" sodipodi:cx="163" sodipodi:sides="6" id="path4005" style="fill:#888a85;fill-opacity:1;stroke:none" sodipodi:type="star"/>
      <path sodipodi:type="star" style="fill:#888a85;fill-opacity:1;stroke:none" id="path4007" sodipodi:sides="6" sodipodi:cx="163" sodipodi:cy="225.60577" sodipodi:r1="5.315073" sodipodi:r2="4.6029882" sodipodi:arg1="0.78539816" sodipodi:arg2="1.3089969" inkscape:flatsided="true" inkscape:rounded="0.2" inkscape:randomized="0" d="m 166.75832,229.3641 c -0.75166,0.75166 -4.10717,1.65077 -5.13396,1.37564 -1.0268,-0.27513 -3.4832,-2.73153 -3.75833,-3.75832 -0.27512,-1.0268 0.62398,-4.38231 1.37565,-5.13397 0.75166,-0.75167 4.10717,-1.65077 5.13396,-1.37564 1.0268,0.27513 3.4832,2.73153 3.75833,3.75832 0.27512,1.0268 -0.62398,4.3823 -1.37565,5.13397 z" transform="translate(72.68734,203.23288)"/>
      <path transform="translate(43.18734,213.73288)" d="m 166.75832,229.3641 c -0.75166,0.75166 -4.10717,1.65077 -5.13396,1.37564 -1.0268,-0.27513 -3.4832,-2.73153 -3.75833,-3.75832 -0.27512,-1.0268 0.62398,-4.38231 1.37565,-5.13397 0.75166,-0.75167 4.10717,-1.65077 5.13396,-1.37564 1.0268,0.27513 3.4832,2.73153 3.75833,3.75832 0.27512,1.0268 -0.62398,4.3823 -1.37565,5.13397 z" inkscape:randomized="0" inkscape:rounded="0.2" inkscape:flatsided="true" sodipodi:arg2="1.3089969" sodipodi:arg1="0.78539816" sodipodi:r2="4.6029882" sodipodi:r1="5.315073" sodipodi:cy="225.60577" sodipodi:cx="163" sodipodi:sides="6" id="path4009" style="fill:#888a85;fill-opacity:1;stroke:none" sodipodi:type="star"/>
      <path sodipodi:type="star" style="fill:#888a85;fill-opacity:1;stroke:none" id="path4011" sodipodi:sides="6" sodipodi:cx="163" sodipodi:cy="225.60577" sodipodi:r1="5.315073" sodipodi:r2="4.6029882" sodipodi:arg1="0.78539816" sodipodi:arg2="1.3089969" inkscape:flatsided="true" inkscape:rounded="0.2" inkscape:randomized="0" d="m 166.75832,229.3641 c -0.75166,0.75166 -4.10717,1.65077 -5.13396,1.37564 -1.0268,-0.27513 -3.4832,-2.73153 -3.75833,-3.75832 -0.27512,-1.0268 0.62398,-4.38231 1.37565,-5.13397 0.75166,-0.75167 4.10717,-1.65077 5.13396,-1.37564 1.0268,0.27513 3.4832,2.73153 3.75833,3.75832 0.27512,1.0268 -0.62398,4.3823 -1.37565,5.13397 z" transform="translate(54.68734,198.73288)"/>
      <path transform="translate(69.93734,232.73288)" d="m 166.75832,229.3641 c -0.75166,0.75166 -4.10717,1.65077 -5.13396,1.37564 -1.0268,-0.27513 -3.4832,-2.73153 -3.75833,-3.75832 -0.27512,-1.0268 0.62398,-4.38231 1.37565,-5.13397 0.75166,-0.75167 4.10717,-1.65077 5.13396,-1.37564 1.0268,0.27513 3.4832,2.73153 3.75833,3.75832 0.27512,1.0268 -0.62398,4.3823 -1.37565,5.13397 z" inkscape:randomized="0" inkscape:rounded="0.2" inkscape:flatsided="true" sodipodi:arg2="1.3089969" sodipodi:arg1="0.78539816" sodipodi:r2="4.6029882" sodipodi:r1="5.315073" sodipodi:cy="225.60577" sodipodi:cx="163" sodipodi:sides="6" id="path4013" style="fill:#888a85;fill-opacity:1;stroke:none" sodipodi:type="star"/>
      <path transform="translate(77.68734,217.98288)" d="m 166.75832,229.3641 c -0.75166,0.75166 -4.10717,1.65077 -5.13396,1.37564 -1.0268,-0.27513 -3.4832,-2.73153 -3.75833,-3.75832 -0.27512,-1.0268 0.62398,-4.38231 1.37565,-5.13397 0.75166,-0.75167 4.10717,-1.65077 5.13396,-1.37564 1.0268,0.27513 3.4832,2.73153 3.75833,3.75832 0.27512,1.0268 -0.62398,4.3823 -1.37565,5.13397 z" inkscape:randomized="0" inkscape:rounded="0.2" inkscape:flatsided="true" sodipodi:arg2="1.3089969" sodipodi:arg1="0.78539816" sodipodi:r2="4.6029882" sodipodi:r1="5.315073" sodipodi:cy="225.60577" sodipodi:cx="163" sodipodi:sides="6" id="path4015" style="fill:#888a85;fill-opacity:1;stroke:none" sodipodi:type="star"/>
    </g>
    <g transform="matrix(0.55406652,0.07334607,-0.07334607,0.55406652,43.11681,93.478132)" id="g4017">
      <path sodipodi:type="arc" style="fill:#444643;fill-opacity:1;stroke:none" id="path4019" sodipodi:cx="168.92857" sodipodi:cy="462.00504" sodipodi:rx="18.928572" sodipodi:ry="18.928572" d="m 187.85715,462.00504 c 0,10.45396 -8.47461,18.92857 -18.92858,18.92857 C 158.47461,480.93361 150,472.459 150,462.00504 c 0,-10.45397 8.47461,-18.92858 18.92857,-18.92858 10.45397,0 18.92858,8.47461 18.92858,18.92858 z" transform="matrix(1.4609518,0,0,1.4609518,-23.137019,-232.44005)"/>
      <path sodipodi:type="star" style="fill:#888a85;fill-opacity:1;stroke:none" id="path4021" sodipodi:sides="6" sodipodi:cx="163" sodipodi:cy="225.60577" sodipodi:r1="5.315073" sodipodi:r2="4.6029882" sodipodi:arg1="0.78539816" sodipodi:arg2="1.3089969" inkscape:flatsided="true" inkscape:rounded="0.2" inkscape:randomized="0" d="m 166.75832,229.3641 c -0.75166,0.75166 -4.10717,1.65077 -5.13396,1.37564 -1.0268,-0.27513 -3.4832,-2.73153 -3.75833,-3.75832 -0.27512,-1.0268 0.62398,-4.38231 1.37565,-5.13397 0.75166,-0.75167 4.10717,-1.65077 5.13396,-1.37564 1.0268,0.27513 3.4832,2.73153 3.75833,3.75832 0.27512,1.0268 -0.62398,4.3823 -1.37565,5.13397 z" transform="translate(51.68734,231.23288)"/>
      <path transform="translate(72.68734,203.23288)" d="m 166.75832,229.3641 c -0.75166,0.75166 -4.10717,1.65077 -5.13396,1.37564 -1.0268,-0.27513 -3.4832,-2.73153 -3.75833,-3.75832 -0.27512,-1.0268 0.62398,-4.38231 1.37565,-5.13397 0.75166,-0.75167 4.10717,-1.65077 5.13396,-1.37564 1.0268,0.27513 3.4832,2.73153 3.75833,3.75832 0.27512,1.0268 -0.62398,4.3823 -1.37565,5.13397 z" inkscape:randomized="0" inkscape:rounded="0.2" inkscape:flatsided="true" sodipodi:arg2="1.3089969" sodipodi:arg1="0.78539816" sodipodi:r2="4.6029882" sodipodi:r1="5.315073" sodipodi:cy="225.60577" sodipodi:cx="163" sodipodi:sides="6" id="path4023" style="fill:#888a85;fill-opacity:1;stroke:none" sodipodi:type="star"/>
      <path sodipodi:type="star" style="fill:#888a85;fill-opacity:1;stroke:none" id="path4025" sodipodi:sides="6" sodipodi:cx="163" sodipodi:cy="225.60577" sodipodi:r1="5.315073" sodipodi:r2="4.6029882" sodipodi:arg1="0.78539816" sodipodi:arg2="1.3089969" inkscape:flatsided="true" inkscape:rounded="0.2" inkscape:randomized="0" d="m 166.75832,229.3641 c -0.75166,0.75166 -4.10717,1.65077 -5.13396,1.37564 -1.0268,-0.27513 -3.4832,-2.73153 -3.75833,-3.75832 -0.27512,-1.0268 0.62398,-4.38231 1.37565,-5.13397 0.75166,-0.75167 4.10717,-1.65077 5.13396,-1.37564 1.0268,0.27513 3.4832,2.73153 3.75833,3.75832 0.27512,1.0268 -0.62398,4.3823 -1.37565,5.13397 z" transform="translate(43.18734,213.73288)"/>
      <path transform="translate(54.68734,198.73288)" d="m 166.75832,229.3641 c -0.75166,0.75166 -4.10717,1.65077 -5.13396,1.37564 -1.0268,-0.27513 -3.4832,-2.73153 -3.75833,-3.75832 -0.27512,-1.0268 0.62398,-4.38231 1.37565,-5.13397 0.75166,-0.75167 4.10717,-1.65077 5.13396,-1.37564 1.0268,0.27513 3.4832,2.73153 3.75833,3.75832 0.27512,1.0268 -0.62398,4.3823 -1.37565,5.13397 z" inkscape:randomized="0" inkscape:rounded="0.2" inkscape:flatsided="true" sodipodi:arg2="1.3089969" sodipodi:arg1="0.78539816" sodipodi:r2="4.6029882" sodipodi:r1="5.315073" sodipodi:cy="225.60577" sodipodi:cx="163" sodipodi:sides="6" id="path4027" style="fill:#888a85;fill-opacity:1;stroke:none" sodipodi:type="star"/>
      <path sodipodi:type="star" style="fill:#888a85;fill-opacity:1;stroke:none" id="path4029" sodipodi:sides="6" sodipodi:cx="163" sodipodi:cy="225.60577" sodipodi:r1="5.315073" sodipodi:r2="4.6029882" sodipodi:arg1="0.78539816" sodipodi:arg2="1.3089969" inkscape:flatsided="true" inkscape:rounded="0.2" inkscape:randomized="0" d="m 166.75832,229.3641 c -0.75166,0.75166 -4.10717,1.65077 -5.13396,1.37564 -1.0268,-0.27513 -3.4832,-2.73153 -3.75833,-3.75832 -0.27512,-1.0268 0.62398,-4.38231 1.37565,-5.13397 0.75166,-0.75167 4.10717,-1.65077 5.13396,-1.37564 1.0268,0.27513 3.4832,2.73153 3.75833,3.75832 0.27512,1.0268 -0.62398,4.3823 -1.37565,5.13397 z" transform="translate(69.93734,232.73288)"/>
      <path sodipodi:type="star" style="fill:#888a85;fill-opacity:1;stroke:none" id="path4031" sodipodi:sides="6" sodipodi:cx="163" sodipodi:cy="225.60577" sodipodi:r1="5.315073" sodipodi:r2="4.6029882" sodipodi:arg1="0.78539816" sodipodi:arg2="1.3089969" inkscape:flatsided="true" inkscape:rounded="0.2" inkscape:randomized="0" d="m 166.75832,229.3641 c -0.75166,0.75166 -4.10717,1.65077 -5.13396,1.37564 -1.0268,-0.27513 -3.4832,-2.73153 -3.75833,-3.75832 -0.27512,-1.0268 0.62398,-4.38231 1.37565,-5.13397 0.75166,-0.75167 4.10717,-1.65077 5.13396,-1.37564 1.0268,0.27513 3.4832,2.73153 3.75833,3.75832 0.27512,1.0268 -0.62398,4.3823 -1.37565,5.13397 z" transform="translate(77.68734,217.98288)"/>
    </g>
    <path sodipodi:nodetypes="cccc" id="path4033" d="m 125.81654,320.25182 15.77387,1.20711 c 0,0 2.38971,-24.53545 14.99137,-30.4221 -15.44112,-7.1066 -30.76524,29.21499 -30.76524,29.21499 z" style="fill:#73d216;stroke:none"/>
  </g>
</svg>