<?xml version="1.0" encoding="UTF-8" standalone="no"?>
<!-- Created with Inkscape (http://www.inkscape.org/) -->
<svg xmlns:dc="http://purl.org/dc/elements/1.1/" xmlns:cc="http://creativecommons.org/ns#" xmlns:rdf="http://www.w3.org/1999/02/22-rdf-syntax-ns#" xmlns:svg="http://www.w3.org/2000/svg" xmlns="http://www.w3.org/2000/svg" xmlns:sodipodi="http://sodipodi.sourceforge.net/DTD/sodipodi-0.dtd" xmlns:inkscape="http://www.inkscape.org/namespaces/inkscape" width="315.41678" height="181.35577" id="svg2" version="1.1" inkscape:version="0.47 r22583" sodipodi:docname="tanque_xilographic_style.svg">
  <sodipodi:namedview id="base" pagecolor="#ffffff" bordercolor="#666666" borderopacity="1.0" inkscape:pageopacity="0.0" inkscape:pageshadow="2" inkscape:zoom="1" inkscape:cx="121.7561" inkscape:cy="20.978872" inkscape:document-units="px" inkscape:current-layer="layer1" showgrid="false" inkscape:window-width="1280" inkscape:window-height="949" inkscape:window-x="0" inkscape:window-y="24" inkscape:window-maximized="1" showguides="true" inkscape:guide-bbox="true"/>
  <defs id="defs4">
    <inkscape:perspective sodipodi:type="inkscape:persp3d" inkscape:vp_x="0 : 526.18109 : 1" inkscape:vp_y="0 : 1000 : 0" inkscape:vp_z="744.09448 : 526.18109 : 1" inkscape:persp3d-origin="372.04724 : 350.78739 : 1" id="perspective10"/>
    <inkscape:perspective id="perspective2824" inkscape:persp3d-origin="0.5 : 0.33333333 : 1" inkscape:vp_z="1 : 0.5 : 1" inkscape:vp_y="0 : 1000 : 0" inkscape:vp_x="0 : 0.5 : 1" sodipodi:type="inkscape:persp3d"/>
  </defs>
  <metadata id="metadata7">
    <rdf:RDF>
      <cc:Work rdf:about="">
        <dc:format>image/svg+xml</dc:format>
        <dc:type rdf:resource="http://purl.org/dc/dcmitype/StillImage"/>
        <dc:title/>
      </cc:Work>
    </rdf:RDF>
  </metadata>
  <g inkscape:label="Capa 1" inkscape:groupmode="layer" id="layer1" transform="translate(-104.18734,-215.98288)">
    <path sodipodi:nodetypes="cccscccc" id="path4019" d="m 341.68701,358.12293 c -39.41039,-2.43771 -78.07765,1.67321 -107.50424,1.4812 -35.07747,0.44806 -72.04685,-1.96153 -107.3801,0.082 11.68164,1.58432 23.59359,3.0629 35.82971,4.18073 4.8319,0.44141 9.67957,0.81025 14.54066,1.21845 43.0103,4.82445 87.06872,1.79055 129.33129,-2.3449 12.10215,-1.27466 23.68672,-2.88389 35.18254,-4.61755 l 1.4e-4,4e-5 z" style="fill:#000000;fill-opacity:1;stroke:none"/>
    <path style="fill:#000000;fill-opacity:1;stroke:none" d="m 349.11163,346.12293 c -40.77209,-2.43771 -80.77537,1.67321 -111.21869,1.4812 -36.28946,0.44806 -74.5362,-1.96153 -111.09027,0.082 12.08526,1.58432 24.40879,3.0629 37.06769,4.18073 4.99885,0.44141 10.01401,0.81025 15.04306,1.21845 44.49638,4.82445 90.0771,1.79055 133.79991,-2.3449 12.5203,-1.27466 24.50514,-2.88389 36.39816,-4.61755 l 1.4e-4,4e-5 z" id="path4017" sodipodi:nodetypes="cccscccc"/>
    <path sodipodi:nodetypes="cccscccc" id="path3985" d="m 347.34386,334.12293 c -40.44787,-2.43771 -80.13305,1.67321 -110.3343,1.4812 -36.00089,0.44806 -73.94349,-1.96153 -110.20689,0.082 11.98916,1.58432 24.21469,3.0629 36.77293,4.18073 4.9591,0.44141 9.93439,0.81025 14.92345,1.21845 44.14255,4.82445 89.36081,1.79055 132.73595,-2.3449 12.42074,-1.27466 24.31027,-2.88389 36.10872,-4.61755 l 1.4e-4,4e-5 z" style="fill:#000000;fill-opacity:1;stroke:none"/>
    <path style="fill:#000000;fill-opacity:1;stroke:none" d="m 218.71062,215.98288 c -10.86291,0 -13.25923,0.2994 -19.26724,2.42651 -9.37456,3.31904 -18.02598,7.1226 -24.15647,14.1607 -12.18657,13.99078 -21.29537,51.42758 -21.29537,51.42758 l 9.45254,0.32595 c 5.19644,0.17257 34.3183,0.39716 64.71907,0.50703 l 55.26654,0.2173 -0.57946,-8.83685 c -0.29241,-4.45147 -0.90216,-8.48097 -1.88327,-12.34986 l 110.85898,3.1856 8.08919,7.7655 19.689,-6.96728 0,-29.11815 -18.49282,-7.5839 -10.45497,8.41139 -119.28678,3.40985 c -7.66985,-10.98332 -19.29435,-19.56372 -33.39171,-24.55486 -6.00799,-2.12711 -8.40435,-2.42651 -19.26723,-2.42651 z" id="path3686" sodipodi:nodetypes="csacccccccccccccsc"/>
    <path style="fill:#000000;fill-opacity:1;stroke:none" d="m 142.70685,286.96743 c -10.93782,6.38897 -17.97654,12.78449 -22.16456,34.04361 l 227.44029,0 c -5,-21.5 -49.97892,-32.269 -49.97892,-32.269 l -64.75529,-0.6519 c -35.60517,-0.36038 -70.51337,-0.78168 -77.61219,-0.90541 l -12.92933,-0.2173 z" id="path2827" sodipodi:nodetypes="ccccccc"/>
    <path transform="matrix(1.4609518,0,0,1.4609518,-64.856319,-314.86824)" d="m 187.85715,462.00504 c 0,10.45396 -8.47461,18.92857 -18.92858,18.92857 C 158.47461,480.93361 150,472.459 150,462.00504 c 0,-10.45397 8.47461,-18.92858 18.92857,-18.92858 10.45397,0 18.92858,8.47461 18.92858,18.92858 z" sodipodi:ry="18.928572" sodipodi:rx="18.928572" sodipodi:cy="462.00504" sodipodi:cx="168.92857" id="path2832" style="fill:#000000;fill-opacity:1;stroke:#ffffff;stroke-width:1.36897051;stroke-miterlimit:4;stroke-dasharray:none" sodipodi:type="arc"/>
    <path style="fill:none;stroke:#000000;stroke-width:8;stroke-miterlimit:4;stroke-opacity:1" d="m 131.17872,327.57773 217.3833,0 c 0,0 26.2498,-0.35818 28.18377,11.33452 7.89518,47.73383 -52.18377,54.42641 -52.18377,54.42641 l -177.3833,0 c -16.06123,0 -38.99138,-12.93015 -38.99138,-28.99138 l 0,-13.77817 c 0,-16.06123 6.93015,-22.99138 22.99138,-22.99138 z" id="rect3619" sodipodi:nodetypes="ccsccccc"/>
    <path style="fill:#000000;fill-opacity:1;stroke:#ffffff;stroke-width:2;stroke-miterlimit:4;stroke-dasharray:none" d="m 133.28125,331.625 c -1.9476,0 -3.5,1.58365 -3.5,3.53125 l 0,1.78125 c -2.08787,0.43984 -4.05262,1.24597 -5.78125,2.375 l -1.25,-1.25 c -1.37716,-1.37716 -3.59159,-1.37716 -4.96875,0 -1.37716,1.37716 -1.37716,3.59159 0,4.96875 l 1.25,1.25 c -1.12681,1.72678 -1.93558,3.66502 -2.375,5.75 l -1.78125,0 c -1.9476,0 -3.5,1.58365 -3.5,3.53125 0,1.9476 1.5524,3.5 3.5,3.5 l 1.78125,0 c 0.4389,2.08359 1.28083,4.02401 2.40625,5.75 l -1.28125,1.28125 c -1.37716,1.37716 -1.37716,3.59159 0,4.96875 1.37716,1.37716 3.59159,1.37716 4.96875,0 l 1.25,-1.25 c 1.72823,1.12843 3.69405,1.93534 5.78125,2.375 l 0,1.78125 c 0,1.9476 1.5524,3.5 3.5,3.5 1.9476,0 3.53125,-1.5524 3.53125,-3.5 l 0,-1.78125 c 2.08498,-0.43942 4.02322,-1.24819 5.75,-2.375 l 1.25,1.25 c 1.37716,1.37716 3.59159,1.37716 4.96875,0 1.37716,-1.37716 1.37716,-3.59159 0,-4.96875 l -1.25,-1.25 c 1.12903,-1.72863 1.93516,-3.69338 2.375,-5.78125 l 1.78125,0 c 1.9476,0 3.53125,-1.5524 3.53125,-3.5 0,-1.9476 -1.58365,-3.53125 -3.53125,-3.53125 l -1.78125,0 c -0.43962,-2.08569 -1.24755,-4.02279 -2.375,-5.75 l 1.25,-1.25 c 1.37716,-1.37716 1.37716,-3.59159 0,-4.96875 -1.37716,-1.37716 -3.59159,-1.37716 -4.96875,0 l -1.25,1.25 c -1.72721,-1.12745 -3.66431,-1.93538 -5.75,-2.375 l 0,-1.78125 c 0,-1.9476 -1.58365,-3.53125 -3.53125,-3.53125 z" id="path3723"/>
    <path style="fill:#000000;fill-opacity:1;stroke:#ffffff;stroke-width:2;stroke-miterlimit:4;stroke-dasharray:none" d="m 349.4375,333.0625 c -1.79053,0 -3.25,1.42822 -3.25,3.21875 l 0,1.625 c -1.91322,0.4042 -3.69627,1.18482 -5.28125,2.21875 L 339.75,338.9375 c -1.2661,-1.2661 -3.2964,-1.2661 -4.5625,0 -1.2661,1.2661 -1.2661,3.32765 0,4.59375 l 1.15625,1.15625 c -1.03386,1.58488 -1.78328,3.36816 -2.1875,5.28125 l -1.65625,0 c -1.79053,0 -3.21875,1.42822 -3.21875,3.21875 0,1.79053 1.42822,3.25 3.21875,3.25 l 1.65625,0 c 0.40422,1.91309 1.15364,3.69637 2.1875,5.28125 l -1.15625,1.15625 c -1.2661,1.2661 -1.2661,3.2964 0,4.5625 1.2661,1.2661 3.2964,1.2661 4.5625,0 l 1.15625,-1.15625 c 1.58498,1.03393 3.36803,1.81455 5.28125,2.21875 l 0,1.625 c 0,1.79053 1.45947,3.21875 3.25,3.21875 1.79053,0 3.21875,-1.42822 3.21875,-3.21875 l 0,-1.625 c 1.92589,-0.40296 3.71845,-1.17827 5.3125,-2.21875 l 1.15625,1.15625 c 1.2661,1.2661 3.2964,1.2661 4.5625,0 1.2661,-1.2661 1.2661,-3.2964 0,-4.5625 l -1.15625,-1.15625 c 1.03386,-1.58488 1.78328,-3.36816 2.1875,-5.28125 l 1.625,0 c 1.79053,0 3.25,-1.45947 3.25,-3.25 0,-1.79053 -1.45947,-3.21875 -3.25,-3.21875 l -1.625,0 c -0.40422,-1.91309 -1.15364,-3.69637 -2.1875,-5.28125 l 1.15625,-1.15625 c 1.2661,-1.2661 1.2661,-3.32765 0,-4.59375 -1.2661,-1.2661 -3.2964,-1.2661 -4.5625,0 l -1.1875,1.1875 c -1.58852,-1.03304 -3.3643,-1.81766 -5.28125,-2.21875 l 0,-1.625 c 0,-1.79053 -1.42822,-3.21875 -3.21875,-3.21875 z" id="path3751"/>
    <path sodipodi:type="arc" style="fill:#000000;fill-opacity:1;stroke:#ffffff;stroke-width:1.36897051;stroke-miterlimit:4;stroke-dasharray:none" id="path3777" sodipodi:cx="168.92857" sodipodi:cy="462.00504" sodipodi:rx="18.928572" sodipodi:ry="18.928572" d="m 187.85715,462.00504 c 0,10.45396 -8.47461,18.92857 -18.92858,18.92857 C 158.47461,480.93361 150,472.459 150,462.00504 c 0,-10.45397 8.47461,-18.92858 18.92857,-18.92858 10.45397,0 18.92858,8.47461 18.92858,18.92858 z" transform="matrix(1.4609518,0,0,1.4609518,-6.6387649,-314.19559)"/>
    <path transform="matrix(1.4609518,0,0,1.4609518,51.578801,-314.19559)" d="m 187.85715,462.00504 c 0,10.45396 -8.47461,18.92857 -18.92858,18.92857 C 158.47461,480.93361 150,472.459 150,462.00504 c 0,-10.45397 8.47461,-18.92858 18.92857,-18.92858 10.45397,0 18.92858,8.47461 18.92858,18.92858 z" sodipodi:ry="18.928572" sodipodi:rx="18.928572" sodipodi:cy="462.00504" sodipodi:cx="168.92857" id="path3779" style="fill:#000000;fill-opacity:1;stroke:#ffffff;stroke-width:1.36897051;stroke-miterlimit:4;stroke-dasharray:none" sodipodi:type="arc"/>
    <path style="fill:#ffffff;stroke:#000000;stroke-width:1px;stroke-linecap:butt;stroke-linejoin:miter;stroke-opacity:1" d="m 389.90625,242.125 -116.75,3.625 2.53125,2.0625 73.5625,1.125 c 0.11662,-0.84689 0.23506,-1.68777 0.375,-2.53125 0.46465,0.83555 0.90165,1.68563 1.3125,2.53125 L 355.25,249 c 0.1188,-0.86757 0.23166,-1.72976 0.375,-2.59375 0.48278,0.86816 0.95015,1.74609 1.375,2.625 l 4.21875,0.0625 c 0.12212,-0.89988 0.25759,-1.79146 0.40625,-2.6875 0.49865,0.89669 0.96927,1.8107 1.40625,2.71875 l 4.1875,0.0625 c 0.12524,-0.93091 0.25249,-1.85445 0.40625,-2.78125 0.51774,0.93103 0.98583,1.86912 1.4375,2.8125 l 3.90625,0.0625 c 0.17216,-1.63542 0.387,-3.25207 0.65625,-4.875 0.90024,1.61886 1.69576,3.25942 2.40625,4.90625 l 2.9375,0.0625 c 0.1731,-1.66642 0.38193,-3.31528 0.65625,-4.96875 0.91673,1.64851 1.71705,3.32287 2.4375,5 l 2.875,0.0625 c 0.17397,-1.69843 0.40795,-3.37752 0.6875,-5.0625 0.93578,1.68276 1.765,3.37884 2.5,5.09375 l 1.4375,0.0312 0.34375,-7.40625 z" id="path2889"/>
    <path style="fill:#ffffff;fill-opacity:1;stroke:none" d="m 219.1875,218.3125 c -9.68855,0 -11.82901,0.29036 -17.1875,2.1875 -8.3611,2.96023 -16.09476,6.34778 -21.5625,12.625 -10.84196,12.4471 -18.92844,45.67773 -18.96875,45.84375 7.57251,-2.9567 15.41201,-3.86084 21.8125,-4.90625 -1.51017,-0.0704 -3.02942,-0.18298 -4.53125,-0.3125 -1.19006,-0.16687 -2.37658,-0.30583 -3.5625,-0.5 -3.00318,-0.4917 -5.96442,-1.2453 -8.875,-2.125 7.50288,-2.98288 15.22446,-3.90745 21.625,-4.9375 0.0311,-0.1613 0.0623,-0.3066 0.0937,-0.46875 -1.56543,-0.0675 -3.13434,-0.1473 -4.6875,-0.28125 -1.19006,-0.16687 -2.37658,-0.30583 -3.5625,-0.5 -3.00318,-0.4917 -5.96442,-1.2453 -8.875,-2.125 6.37737,-2.53542 12.92306,-3.57703 18.6875,-4.46875 0.0623,-0.26174 0.12346,-0.51976 0.1875,-0.78125 -0.43694,-0.0332 -0.87786,-0.0563 -1.3125,-0.0937 -1.19006,-0.16687 -2.37658,-0.30583 -3.5625,-0.5 -3.00318,-0.4917 -5.96442,-1.2453 -8.875,-2.125 5.26626,-2.09368 10.65021,-3.15523 15.625,-3.96875 0.0973,-0.29783 0.21182,-0.58066 0.3125,-0.875 -1.00073,-0.17836 -2.00839,-0.35761 -3,-0.5625 -2.98022,-0.61574 -5.87838,-1.46918 -8.75,-2.46875 4.8218,-1.68912 9.70246,-2.52737 14.28125,-3.125 0.23249,-0.46364 0.44101,-0.93375 0.6875,-1.375 -0.28241,-0.0775 -0.5623,-0.13392 -0.84375,-0.21875 -2.91371,-0.87813 -5.72857,-1.99921 -8.5,-3.25 4.52467,-1.14555 9.02115,-1.59452 13.28125,-1.8125 0.38869,-0.43199 0.77157,-0.87991 1.15625,-1.28125 -0.35596,-0.15146 -0.70898,-0.30942 -1.0625,-0.46875 -2.77441,-1.25037 -5.44646,-2.74245 -8.03125,-4.34375 4.99837,-0.58888 9.86348,-0.37045 14.40625,0.0312 0.39448,-0.2968 0.79321,-0.56935 1.1875,-0.84375 -0.0206,-0.0108 -0.0419,-0.0204 -0.0625,-0.0312 -2.69411,-1.41511 -5.26629,-3.05851 -7.75,-4.8125 5.13112,-0.293 10.09551,0.26936 14.6875,0.96875 0.44597,-0.20439 0.89168,-0.39888 1.34375,-0.59375 -2.33148,-1.40325 -4.5593,-2.96873 -6.71875,-4.625 5.12177,-0.0903 10.07466,0.63278 14.625,1.5 2.70238,-1.0307 5.55453,-2.14263 8.6875,-3.59375 -2.91494,-0.62589 -6.00648,-0.78125 -12.40625,-0.78125 z" id="path2891"/>
    <path style="fill:#ffffff;stroke:#000000;stroke-width:1px;stroke-linecap:butt;stroke-linejoin:miter;stroke-opacity:1" d="m 400.15625,234 2.28125,7.5625 2.15625,0.3125 c 0.1521,-1.2469 0.3256,-2.47917 0.53125,-3.71875 0.75185,1.35201 1.3875,2.72192 2,4.09375 l 1.03125,0.125 c 0.14228,-1.07661 0.29043,-2.14388 0.46875,-3.21875 0.65284,1.17396 1.21115,2.37125 1.75,3.5625 l 1.09375,0.15625 c 0.13186,-0.90522 0.25595,-1.81279 0.40625,-2.71875 0.55057,0.99006 1.05388,1.99527 1.53125,3 l 4.40625,0.625 -1.90625,-3.90625 -15.75,-5.875 z" id="path2974"/>
    <path style="fill:#ffffff;fill-opacity:1;stroke:none" d="m 146.03125,288.59375 c -9.6155,5.61658 -15.78704,11.24849 -19.46875,29.9375 l 9.75,0 c 0.35095,-0.79639 0.61476,-1.36796 0.9375,-2.09375 -2.95974,-0.43465 -5.88039,-1.07743 -8.75,-1.84375 3.61179,-1.26871 7.26276,-2.10492 10.8125,-2.75 0.49534,-1.06949 0.96348,-2.03695 1.40625,-2.9375 -2.57532,-0.42047 -5.11921,-0.95584 -7.625,-1.625 3.27433,-1.15017 6.60694,-1.94042 9.84375,-2.5625 0.55003,-0.93682 1.12154,-1.79159 1.6875,-2.59375 -2.28091,-0.41033 -4.51626,-0.93474 -6.75,-1.53125 3.39258,-1.19171 6.81527,-1.9967 10.15625,-2.625 0.50848,-0.54084 1.03996,-1.10204 1.625,-1.6875 -1.94789,-0.37908 -3.87439,-0.83453 -5.78125,-1.34375 3.25738,-1.14422 6.58325,-1.94291 9.8125,-2.5625 1.12461,-1.08106 2.32019,-2.23342 3.71875,-3.59375 l -11.375,-0.1875 z" id="path2990"/>
    <path style="fill:#ffffff;fill-opacity:1;stroke:none" d="m 182.0625,343.375 c -9.233,0 -16.71875,7.54825 -16.71875,16.78125 0,9.233 7.48575,16.75 16.71875,16.75 9.233,0 16.75,-7.517 16.75,-16.75 0,-9.233 -7.517,-16.78125 -16.75,-16.78125 z m -0.34375,1.96875 c 6.76666,0 12.65103,5.70023 13.875,12.3125 -0.19645,1.64013 -0.63791,3.22353 -1.3125,4.71875 0.4399,0.95144 0.86803,1.91092 1.28125,2.875 -0.70086,-0.44638 -1.393,-0.90197 -2.0625,-1.375 -0.54433,0.93661 -1.17848,1.80922 -1.90625,2.625 0.51818,1.10363 1.01942,2.22252 1.5,3.34375 -0.99187,-0.63172 -1.94366,-1.28887 -2.875,-1.96875 -0.86952,0.7639 -1.82853,1.45795 -2.875,2.03125 0.51384,1.10137 1.02311,2.19986 1.5,3.3125 -1.20832,-0.76958 -2.34882,-1.59352 -3.46875,-2.4375 -0.85884,0.33147 -1.72005,0.57207 -2.59375,0.75 0.69585,1.43787 1.37364,2.88238 2,4.34375 -1.94214,-1.23695 -3.74254,-2.59996 -5.46875,-4 -0.64801,-0.011 -1.30082,-0.0682 -1.9375,-0.15625 0.67065,1.37603 1.3379,2.75732 1.9375,4.15625 -2.55747,-1.62885 -4.94624,-3.58226 -6.9375,-5.6875 -0.0621,-0.0526 -0.12621,-0.1027 -0.1875,-0.15625 -2.96418,-2.5901 -4.9375,-6.24244 -4.9375,-10.21875 0,-7.61169 6.85707,-14.46875 14.46875,-14.46875 z" id="path3005"/>
    <path id="path3854" d="m 240.14211,343.375 c -9.233,0 -16.71875,7.54825 -16.71875,16.78125 0,9.233 7.48575,16.75 16.71875,16.75 9.233,0 16.75,-7.517 16.75,-16.75 0,-9.233 -7.517,-16.78125 -16.75,-16.78125 z m -0.34375,1.96875 c 6.76666,0 12.65103,5.70023 13.875,12.3125 -0.19645,1.64013 -0.63791,3.22353 -1.3125,4.71875 0.4399,0.95144 0.86803,1.91092 1.28125,2.875 -0.70086,-0.44638 -1.393,-0.90197 -2.0625,-1.375 -0.54433,0.93661 -1.17848,1.80922 -1.90625,2.625 0.51818,1.10363 1.01942,2.22252 1.5,3.34375 -0.99187,-0.63172 -1.94366,-1.28887 -2.875,-1.96875 -0.86952,0.7639 -1.82853,1.45795 -2.875,2.03125 0.51384,1.10137 1.02311,2.19986 1.5,3.3125 -1.20832,-0.76958 -2.34882,-1.59352 -3.46875,-2.4375 -0.85884,0.33147 -1.72005,0.57207 -2.59375,0.75 0.69585,1.43787 1.37364,2.88238 2,4.34375 -1.94214,-1.23695 -3.74254,-2.59996 -5.46875,-4 -0.64801,-0.011 -1.30082,-0.0682 -1.9375,-0.15625 0.67065,1.37603 1.3379,2.75732 1.9375,4.15625 -2.55747,-1.62885 -4.94624,-3.58226 -6.9375,-5.6875 -0.0621,-0.0526 -0.12621,-0.1027 -0.1875,-0.15625 -2.96418,-2.5901 -4.9375,-6.24244 -4.9375,-10.21875 0,-7.61169 6.85707,-14.46875 14.46875,-14.46875 z" style="fill:#ffffff;fill-opacity:1;stroke:none"/>
    <path style="fill:#ffffff;fill-opacity:1;stroke:none" d="m 299.12316,343.60723 c -9.233,0 -16.71875,7.54825 -16.71875,16.78125 0,9.233 7.48575,16.75 16.71875,16.75 9.233,0 16.75,-7.517 16.75,-16.75 0,-9.233 -7.517,-16.78125 -16.75,-16.78125 z m -0.34375,1.96875 c 6.76666,0 12.65103,5.70023 13.875,12.3125 -0.19645,1.64013 -0.63791,3.22353 -1.3125,4.71875 0.4399,0.95144 0.86803,1.91092 1.28125,2.875 -0.70086,-0.44638 -1.393,-0.90197 -2.0625,-1.375 -0.54433,0.93661 -1.17848,1.80922 -1.90625,2.625 0.51818,1.10363 1.01942,2.22252 1.5,3.34375 -0.99187,-0.63172 -1.94366,-1.28887 -2.875,-1.96875 -0.86952,0.7639 -1.82853,1.45795 -2.875,2.03125 0.51384,1.10137 1.02311,2.19986 1.5,3.3125 -1.20832,-0.76958 -2.34882,-1.59352 -3.46875,-2.4375 -0.85884,0.33147 -1.72005,0.57207 -2.59375,0.75 0.69585,1.43787 1.37364,2.88238 2,4.34375 -1.94214,-1.23695 -3.74254,-2.59996 -5.46875,-4 -0.64801,-0.011 -1.30082,-0.0682 -1.9375,-0.15625 0.67065,1.37603 1.3379,2.75732 1.9375,4.15625 -2.55747,-1.62885 -4.94624,-3.58226 -6.9375,-5.6875 -0.0621,-0.0526 -0.12621,-0.1027 -0.1875,-0.15625 -2.96418,-2.5901 -4.9375,-6.24244 -4.9375,-10.21875 0,-7.61169 6.85707,-14.46875 14.46875,-14.46875 z" id="path3856"/>
    <path id="path3974" d="m 133.41124,342.78921 c -5.7283,0 -10.37258,4.68306 -10.37258,10.41136 0,5.7283 4.64428,10.39197 10.37258,10.39197 5.7283,0 10.39197,-4.66367 10.39197,-10.39197 0,-5.7283 -4.66367,-10.41136 -10.39197,-10.41136 z m -0.21327,1.22144 c 4.19815,0 7.84891,3.53652 8.60828,7.63888 -0.12188,1.01756 -0.39577,1.99993 -0.8143,2.92759 0.27292,0.59028 0.53854,1.18556 0.79491,1.78369 -0.43483,-0.27694 -0.86424,-0.55959 -1.27961,-0.85307 -0.33771,0.58109 -0.73115,1.12247 -1.18267,1.62859 0.32149,0.68471 0.63247,1.37889 0.93063,2.07452 -0.61537,-0.39193 -1.20588,-0.79964 -1.7837,-1.22145 -0.53946,0.47394 -1.13445,0.90454 -1.7837,1.26023 0.3188,0.6833 0.63476,1.36482 0.93063,2.05512 -0.74966,-0.47746 -1.45725,-0.98864 -2.15207,-1.51226 -0.53284,0.20565 -1.06715,0.35492 -1.6092,0.46531 0.43171,0.89208 0.85222,1.78828 1.24083,2.69493 -1.20494,-0.76742 -2.32193,-1.61305 -3.3929,-2.48166 -0.40204,-0.007 -0.80705,-0.0423 -1.20206,-0.0969 0.41608,0.85371 0.83006,1.71069 1.20206,2.5786 -1.5867,-1.01056 -3.06873,-2.22249 -4.30414,-3.52861 -0.0385,-0.0326 -0.0783,-0.0637 -0.11633,-0.0969 -1.83902,-1.60694 -3.0633,-3.87291 -3.0633,-6.33988 0,-4.72242 4.25423,-8.97665 8.97664,-8.97665 z" style="fill:#ffffff;fill-opacity:1;stroke:none"/>
    <path style="fill:#ffffff;fill-opacity:1;stroke:none" d="m 350.35157,343.49631 c -5.14309,0 -9.31291,4.20464 -9.31291,9.34773 0,5.14309 4.16982,9.33032 9.31291,9.33032 5.14309,0 9.33032,-4.18723 9.33032,-9.33032 0,-5.14309 -4.18723,-9.34773 -9.33032,-9.34773 z m -0.19148,1.09666 c 3.76926,0 7.04706,3.17522 7.72885,6.85848 -0.10943,0.91361 -0.35534,1.79562 -0.73111,2.62851 0.24504,0.52998 0.48352,1.06444 0.7137,1.60147 -0.39041,-0.24865 -0.77595,-0.50243 -1.14888,-0.76592 -0.30321,0.52172 -0.65646,1.00779 -1.06185,1.46221 0.28865,0.61476 0.56786,1.23802 0.83556,1.86258 -0.55251,-0.35189 -1.08269,-0.71794 -1.60148,-1.09666 -0.48435,0.42552 -1.01855,0.81213 -1.60148,1.13148 0.28623,0.6135 0.56992,1.22539 0.83556,1.84517 -0.67307,-0.42868 -1.30838,-0.88764 -1.93221,-1.35777 -0.47841,0.18464 -0.95813,0.31866 -1.44481,0.41778 0.38761,0.80094 0.76516,1.60559 1.11407,2.41961 -1.08184,-0.68902 -2.08472,-1.44826 -3.04628,-2.22813 -0.36097,-0.006 -0.7246,-0.038 -1.07926,-0.087 0.37358,0.76649 0.74526,1.53592 1.07926,2.31517 -1.4246,-0.90732 -2.75523,-1.99544 -3.86443,-3.16813 -0.0346,-0.0293 -0.0703,-0.0572 -0.10444,-0.087 -1.65115,-1.44277 -2.75035,-3.47725 -2.75035,-5.69219 0,-4.23998 3.81961,-8.05959 8.05958,-8.05959 z" id="path3976"/>
    <path style="fill:#000000;stroke:#000000;stroke-width:1px;stroke-linecap:butt;stroke-linejoin:miter;stroke-opacity:1" d="m 172.84107,382.48941 -4.69296,9.19238 9.72114,-0.33426 c 0,0 -6.20142,-6.85251 -5.02818,-8.85812 z" id="path4023" sodipodi:nodetypes="cccc"/>
    <path sodipodi:nodetypes="cccc" id="path4025" d="m 208.85492,382.48941 -4.69296,9.19238 9.72114,-0.33426 c 0,0 -6.20142,-6.85251 -5.02818,-8.85812 z" style="fill:#000000;stroke:#000000;stroke-width:1px;stroke-linecap:butt;stroke-linejoin:miter;stroke-opacity:1"/>
    <path style="fill:#000000;stroke:#000000;stroke-width:1px;stroke-linecap:butt;stroke-linejoin:miter;stroke-opacity:1" d="m 244.86878,382.48941 -4.69296,9.19238 9.72114,-0.33426 c 0,0 -6.20142,-6.85251 -5.02818,-8.85812 z" id="path4027" sodipodi:nodetypes="cccc"/>
    <path sodipodi:nodetypes="cccc" id="path4029" d="m 280.88264,383.90362 -4.69296,9.19238 9.72114,-0.33426 c 0,0 -6.20142,-6.85251 -5.02818,-8.85812 z" style="fill:#000000;stroke:#000000;stroke-width:1px;stroke-linecap:butt;stroke-linejoin:miter;stroke-opacity:1"/>
    <path sodipodi:nodetypes="cccc" id="path4037" d="m 160.83645,382.48941 -4.69296,9.19238 9.72114,-0.33426 c 0,0 -6.20142,-6.85251 -5.02818,-8.85812 z" style="fill:#000000;stroke:#000000;stroke-width:1px;stroke-linecap:butt;stroke-linejoin:miter;stroke-opacity:1"/>
    <path style="fill:#000000;stroke:#000000;stroke-width:1px;stroke-linecap:butt;stroke-linejoin:miter;stroke-opacity:1" d="m 196.8503,382.48941 -4.69296,9.19238 9.72114,-0.33426 c 0,0 -6.20142,-6.85251 -5.02818,-8.85812 z" id="path4039" sodipodi:nodetypes="cccc"/>
    <path sodipodi:nodetypes="cccc" id="path4041" d="m 232.86416,382.48941 -4.69296,9.19238 9.72114,-0.33426 c 0,0 -6.20142,-6.85251 -5.02818,-8.85812 z" style="fill:#000000;stroke:#000000;stroke-width:1px;stroke-linecap:butt;stroke-linejoin:miter;stroke-opacity:1"/>
    <path style="fill:#000000;stroke:#000000;stroke-width:1px;stroke-linecap:butt;stroke-linejoin:miter;stroke-opacity:1" d="m 268.87802,383.90362 -4.69296,9.19238 9.72114,-0.33426 c 0,0 -6.20142,-6.85251 -5.02818,-8.85812 z" id="path4043" sodipodi:nodetypes="cccc"/>
    <path style="fill:#000000;stroke:#000000;stroke-width:1px;stroke-linecap:butt;stroke-linejoin:miter;stroke-opacity:1" d="m 148.83183,382.48941 -4.69296,9.19238 9.72114,-0.33426 c 0,0 -6.20142,-6.85251 -5.02818,-8.85812 z" id="path4045" sodipodi:nodetypes="cccc"/>
    <path sodipodi:nodetypes="cccc" id="path4047" d="m 184.84569,382.48941 -4.69296,9.19238 9.72114,-0.33426 c 0,0 -6.20142,-6.85251 -5.02818,-8.85812 z" style="fill:#000000;stroke:#000000;stroke-width:1px;stroke-linecap:butt;stroke-linejoin:miter;stroke-opacity:1"/>
    <path style="fill:#000000;stroke:#000000;stroke-width:1px;stroke-linecap:butt;stroke-linejoin:miter;stroke-opacity:1" d="m 220.85954,382.48941 -4.69296,9.19238 9.72114,-0.33426 c 0,0 -6.20142,-6.85251 -5.02818,-8.85812 z" id="path4049" sodipodi:nodetypes="cccc"/>
    <path sodipodi:nodetypes="cccc" id="path4051" d="m 256.8734,383.90362 -4.69296,9.19238 9.72114,-0.33426 c 0,0 -6.20142,-6.85251 -5.02818,-8.85812 z" style="fill:#000000;stroke:#000000;stroke-width:1px;stroke-linecap:butt;stroke-linejoin:miter;stroke-opacity:1"/>
    <path sodipodi:nodetypes="cccc" id="path4053" d="m 292.88725,382.48941 -4.69296,9.19238 9.72114,-0.33426 c 0,0 -6.20142,-6.85251 -5.02818,-8.85812 z" style="fill:#000000;stroke:#000000;stroke-width:1px;stroke-linecap:butt;stroke-linejoin:miter;stroke-opacity:1"/>
    <path style="fill:#000000;stroke:#000000;stroke-width:1px;stroke-linecap:butt;stroke-linejoin:miter;stroke-opacity:1" d="m 304.89187,382.48941 -4.69296,9.19238 9.72114,-0.33426 c 0,0 -6.20142,-6.85251 -5.02818,-8.85812 z" id="path4055" sodipodi:nodetypes="cccc"/>
    <path sodipodi:nodetypes="cccc" id="path4057" d="m 316.89649,382.48941 -4.69296,9.19238 9.72114,-0.33426 c 0,0 -6.20142,-6.85251 -5.02818,-8.85812 z" style="fill:#000000;stroke:#000000;stroke-width:1px;stroke-linecap:butt;stroke-linejoin:miter;stroke-opacity:1"/>
    <path style="fill:#000000;stroke:#000000;stroke-width:1px;stroke-linecap:butt;stroke-linejoin:miter;stroke-opacity:1" d="m 328.90111,383.90362 -4.69296,9.19238 9.72114,-0.33426 c 0,0 -6.20142,-6.85251 -5.02818,-8.85812 z" id="path4059" sodipodi:nodetypes="cccc"/>
    <path style="fill:#000000;stroke:#000000;stroke-width:1px;stroke-linecap:butt;stroke-linejoin:miter;stroke-opacity:1" d="m 336.85461,379.48283 0.92328,10.27966 8.04995,-5.4599 c 0,0 -8.89817,-2.4974 -8.97323,-4.81976 z" id="path4061" sodipodi:nodetypes="cccc"/>
    <path sodipodi:nodetypes="cccc" id="path4063" d="m 347.01531,373.08979 0.92328,10.27965 8.04995,-5.4599 c 0,0 -8.89817,-2.4974 -8.97323,-4.81975 z" style="fill:#000000;stroke:#000000;stroke-width:1px;stroke-linecap:butt;stroke-linejoin:miter;stroke-opacity:1"/>
    <path style="fill:#000000;stroke:#000000;stroke-width:1px;stroke-linecap:butt;stroke-linejoin:miter;stroke-opacity:1" d="m 357.17601,366.69674 0.92328,10.27965 8.04995,-5.4599 c 0,0 -8.89817,-2.4974 -8.97323,-4.81975 z" id="path4065" sodipodi:nodetypes="cccc"/>
    <path sodipodi:nodetypes="cccc" id="path4067" d="m 365.48473,358.23153 3.37012,9.75531 6.49933,-7.23679 c 0,0 -9.23769,-0.28249 -9.86945,-2.51852 z" style="fill:#000000;stroke:#000000;stroke-width:1px;stroke-linecap:butt;stroke-linejoin:miter;stroke-opacity:1"/>
    <path style="fill:#000000;stroke:#000000;stroke-width:1px;stroke-linecap:butt;stroke-linejoin:miter;stroke-opacity:1" d="m 365.53531,344.84911 8.59976,6.60605 4.93115,-10.55816 c 0,0 -11.7366,5.55475 -13.53091,3.95211 z" id="path4069" sodipodi:nodetypes="cccc"/>
    <path sodipodi:nodetypes="cccc" id="path4071" d="m 355.78843,338.90986 10.37421,-3.15779 -5.72494,-10.14969 c 0,0 -2.3022,12.779 -4.64927,13.30748 z" style="fill:#000000;stroke:#000000;stroke-width:1px;stroke-linecap:butt;stroke-linejoin:miter;stroke-opacity:1" inkscape:transform-center-x="-2.5"/>
    <path sodipodi:nodetypes="cccc" id="path4073" d="m 138.27204,379.25 -7.32744,7.26859 9.3399,2.71634 c 0,0 -3.75304,-8.44566 -2.01246,-9.98493 z" style="fill:#000000;stroke:#000000;stroke-width:1px;stroke-linecap:butt;stroke-linejoin:miter;stroke-opacity:1"/>
    <path style="fill:#000000;stroke:#000000;stroke-width:1px;stroke-linecap:butt;stroke-linejoin:miter;stroke-opacity:1" d="m 126.3097,372.37453 -8.55196,5.77821 8.67135,4.40681 c 0,0 -2.11599,-8.99651 -0.11939,-10.18502 z" id="path4075" sodipodi:nodetypes="cccc"/>
    <path sodipodi:nodetypes="cccc" id="path4077" d="m 117.81512,361.67364 -10.30479,0.57863 5.18736,8.22822 c 0,0 2.79388,-8.80958 5.11743,-8.80685 z" style="fill:#000000;stroke:#000000;stroke-width:1px;stroke-linecap:butt;stroke-linejoin:miter;stroke-opacity:1"/>
  </g>
</svg>